<?xml version="1.0" standalone="no"?>
  <!DOCTYPE svg PUBLIC "-//W3C//DTD SVG 1.1//EN" "http://www.w3.org/Graphics/SVG/1.1/DTD/svg11.dtd" >
  <svg>
  <metadata>
  Created by font-carrier
  </metadata>
  <defs>
  <font id="Quicksand-Light" horiz-adv-x="1443" vert-adv-y="1443" >
    <font-face
      
      font-family="Quicksand"
      
      font-weight="400"
      
      font-stretch="normal"
      
      units-per-em="1000"
      
      ascent="950"
      
      descent="-216"
      
    />
      <missing-glyph />

      

      
      <glyph glyph-name="uni21" unicode="&#x21;" d="M93 167L93 687Q93 700 106 700Q118 700 118 687L118 167Q118 155 106 155Q93 155 93 167M93 13L93 37Q93 49 106 49Q110 49 114 45.50Q118 42 118 37L118 13Q118 0 106 0Q93 0 93 13Z"  horiz-adv-x="252" vert-adv-y="1000"  />

      
      <glyph glyph-name="uni22" unicode="&#x22;" d="M250 461L280 676Q284 702 308 702L327 702Q343 702 343 685Q343 684 338 661L281 460Q275 442 264 442Q247 442 250 461M70 461L100 676Q104 702 128 702L147 702Q163 702 163 685Q163 684 158 661L101 460Q95 442 84 442Q67 442 70 461Z"  horiz-adv-x="410" vert-adv-y="1000"  />

      
      <glyph glyph-name="uni24" unicode="&#x24;" d="M579 187Q578 108 505 53.50Q432-1 330-3L330-27Q330-49 318-49Q315-49 313.50-48.50Q312-48 311-46.50Q310-45 309-44Q308-43 308-40.50Q308-38 308-36.50Q308-35 308-32Q308-29 308-27L308-3Q182 5 67 98Q57 106 65 115Q73 123 81 116Q190 28 308 20L308 356Q211 375 154 413Q85 459 85 530Q86 601 150.50 651Q215 701 308 706L308 733Q308 735 308 738Q309 754 318 755Q330 755 330 733L330 706Q370 705 412 690.50Q454 676 478 662Q502 648 538 624Q548 618 541 608Q536 599 526 605Q490 629 467 642Q444 655 405.50 668.50Q367 682 330 683L330 375Q444 352 505 313Q579 264 579 187M167 432Q216 398 308 379L308 683Q226 678 169 637Q108 592 108 530Q108 472 167 432M489 70Q556 119 556 187Q556 250 492 294Q439 330 330 352L330 20Q423 21 489 70Z"  horiz-adv-x="632" vert-adv-y="1000"  />

      
      <glyph glyph-name="uni26" unicode="&#x26;" d="M49 224Q49 285 79 336.50Q109 388 159 418Q107 467 107 538Q107 605 154.50 652.50Q202 700 268 700Q336 700 383.50 652.50Q431 605 431 538Q431 525 418 525Q413 525 409 529Q405 533 405 538Q405 595 365 635Q325 675 268 675Q212 675 172.50 635Q133 595 133 538Q133 466 190 426Q191 425 193 422L194 421Q197 411 189 406Q186 403 183 403Q134 377 104 329Q74 281 74 224Q74 142 132 83.50Q190 25 273 25Q356 25 414.50 83Q473 141 473 224Q473 251 465 280L459 280Q446 282 424 282Q337 282 299 246Q275 222 275 184Q275 180 275.50 173.50Q276 167 276 165L277 159Q281 148 270 142L266 142Q258 142 253 151Q249 165 249 184Q249 233 281 264Q327 307 424 307Q447 307 460 306L466 306Q493 306 513 320Q532 335 535 368Q535 375 531 397Q529 401 532 406Q535 411 540 412Q554 414 555 402Q559 387 559 368Q560 323 528 299Q511 285 491 282Q498 255 498 224Q498 131 432.50 65.50Q367 0 273 0Q180 0 114.50 65.50Q49 131 49 224Z"  horiz-adv-x="696" vert-adv-y="1000"  />

      
      <glyph glyph-name="uni27" unicode="&#x27;" d="M70 461L100 676Q104 702 128 702L147 702Q163 702 163 685Q163 684 158 661L101 460Q95 442 84 442Q67 442 70 461Z"  horiz-adv-x="230" vert-adv-y="1000"  />

      
      <glyph glyph-name="uni28" unicode="&#x28;" d="M119 25Q71 130 71 303Q71 476 119 582Q174 704 286 703Q301 703 301 689Q301 683 296.50 678.50Q292 674 286 674Q194 674 146 570Q100 471 100 303Q100 135 146 37Q195-68 286-68L286-68Q301-68 301-82Q301-88 296.50-92.50Q292-97 286-97L286-97Q174-97 119 25Z"  horiz-adv-x="430" vert-adv-y="1000"  />

      
      <glyph glyph-name="uni29" unicode="&#x29;" d="M242 25Q187-97 75-97L75-97Q69-97 64.50-92.50Q60-88 60-82Q60-68 75-68L75-68Q166-68 215 37Q261 135 261 303Q261 471 215 570Q167 674 75 674Q69 674 64.50 678.50Q60 683 60 689Q60 703 75 703Q187 704 242 582Q290 476 290 303Q290 130 242 25Z"  horiz-adv-x="430" vert-adv-y="1000"  />

      
      <glyph glyph-name="uni2a" unicode="&#x2a;" d="M195 424L203 533L112 471Q103 465 96 465Q88 465 82 471.50Q76 478 76 486Q76 499 90 505L193 554L90 603Q76 610 76 622Q76 641 96 643Q103 643 112 637L203 575L195 684Q194 693 200 699.50Q206 706 215 706Q224 706 230 699.50Q236 693 235 684L227 575L318 637Q327 643 334 643Q342 643 348 636.50Q354 630 354 622Q354 609 340 603L237 554L340 505Q354 499 354 486Q354 478 348 471.50Q342 465 334 465Q327 465 318 471L227 533L235 424Q236 415 230 408.50Q224 402 215 402Q206 402 200 408.50Q194 415 195 424Z"  horiz-adv-x="430" vert-adv-y="1000"  />

      
      <glyph glyph-name="uni2b" unicode="&#x2b;" d="M293 116L293 327L82 327Q64 327 64 345Q64 362 82 362L293 362L293 574Q293 591 311 591Q317 591 322.50 586Q328 581 328 574L328 362L540 362Q546 362 551.50 357Q557 352 557 345Q557 338 551.50 332.50Q546 327 540 327L328 327L328 116Q328 109 322.50 103.50Q317 98 311 98Q293 98 293 116Z"  horiz-adv-x="620" vert-adv-y="1000"  />

      
      <glyph glyph-name="uni2c" unicode="&#x2c;" d="M54-90Q54-82 62-77Q113-49 109 0Q82 7 82 35L82 56Q82 70 91.50 79.50Q101 89 115 89Q129 89 138.50 79.50Q148 70 148 56L148 31Q148-46 121-73Q89-105 69-105Q54-105 54-90Z"  horiz-adv-x="230" vert-adv-y="1000"  />

      
      <glyph glyph-name="uni2d" unicode="&#x2d;" d="M76 340Q66 340 66 349Q66 360 76 360L304 360Q313 360 313 349Q313 340 304 340L76 340Z"  horiz-adv-x="408" vert-adv-y="1000"  />

      
      <glyph glyph-name="uniad" unicode="&#xad;" d="M76 340Q66 340 66 349Q66 360 76 360L304 360Q313 360 313 349Q313 340 304 340L76 340Z"  horiz-adv-x="408" vert-adv-y="1000"  />

      
      <glyph glyph-name="uni2e" unicode="&#x2e;" d="M92 2Q92 2 87 7Q82 12 82 26Q82 40 92 50Q102 60 116 60Q130 60 140 50Q150 40 150 26Q150 12 140 2Q130-8 116-8Q102-8 92 2Z"  horiz-adv-x="230" vert-adv-y="1000"  />

      
      <glyph glyph-name="uni2f" unicode="&#x2f;" d="M82 1Q71 6 76 18L359 690Q361 695 366 697Q371 699 375 697Q387 693 383 681L98 8Q96 0 87 0Q83 0 82 1Z"  horiz-adv-x="422" vert-adv-y="1000"  />

      
      <glyph glyph-name="uni30" unicode="&#x30;" d="M65 351Q65 494 134 596.50Q203 699 303 700Q404 699 473 596.50Q542 494 542 351Q542 207 473.50 104Q405 1 303 0Q203 1 134 104Q65 207 65 351M155 581Q90 484 90 351Q90 216 155 119Q216 25 303 25Q391 25 452 119Q517 213 517 351Q517 487 452 581Q391 675 303 675Q216 675 155 581Z"  horiz-adv-x="710" vert-adv-y="1000"  />

      
      <glyph glyph-name="uni31" unicode="&#x31;" d="M172 13L172 686Q172 691 176 695Q180 699 184 699Q197 699 197 686L197 13Q197 0 184 0Q179 0 175.50 4Q172 8 172 13M33 596Q27 607 38 613L178 696Q189 704 196 692Q201 681 190 675L50 591Q48 590 44 590Q35 590 33 596Z"  horiz-adv-x="335" vert-adv-y="1000"  />

      
      <glyph glyph-name="uni32" unicode="&#x32;" d="M48 5Q40 14 49 23L387 328Q453 389 453 476Q453 551 401 609Q341 675 254 675Q178 675 120 623L85 591Q75 583 67 591Q63 595 63.50 600.50Q64 606 68 609L103 642Q168 700 254 700Q353 700 420 627Q478 561 478 476Q478 376 403 310L89 25L466 25Q478 25 478 13Q478 8 474.50 4Q471 0 466 0L62 0L59 0L58 0Q50 0 48 5Z"  horiz-adv-x="590" vert-adv-y="1000"  />

      
      <glyph glyph-name="uni33" unicode="&#x33;" d="M264 466Q349 458 406 399Q474 331 474 235Q474 139 406 69Q336 1 241 1L240 1Q143 1 76 69Q67 78 76 87Q85 96 94 87Q155 27 240 27Q327 27 387 88Q448 148 448 235Q448 320 388 381Q326 441 242 441Q234 441 230 447L229 448Q220 458 229 467L431 675L122 675Q109 675 109 688Q109 701 122 701L461 701Q474 701 474 688Q474 684 473 682Q471 678 470 677L264 466Z"  horiz-adv-x="610" vert-adv-y="1000"  />

      
      <glyph glyph-name="uni34" unicode="&#x34;" d="M470 13L470 149L63 149L61 149Q57 149 53 152Q44 161 51 169L473 694L475 696Q479 699 483 699Q489 699 493 693Q494 692 494 692Q494 690 495 690L496 689Q496 688 496 687L496 685L496 174L557 174Q570 174 570 162Q570 149 557 149L496 149L496 13Q496 0 483 0Q478 0 474 4Q470 8 470 13M87 174L470 174L470 648L87 174Z"  horiz-adv-x="664" vert-adv-y="1000"  />

      
      <glyph glyph-name="uni35" unicode="&#x35;" d="M229 0Q134 0 65 69Q55 77 65 87Q74 96 83 87Q146 26 229 26Q315 26 376 87Q437 148 437 234Q437 320 376 380Q316 440 230 440Q146 440 83 380Q81 376 75.50 376Q70 376 66 379Q64 379 64 381L63 382Q60 387 61 392L96 687Q98 696 105 698Q109 700 112 700L450 700Q455 700 459 696Q463 692 463 687Q463 674 450 674L121 674L91 420Q152 466 230 466Q328 466 396 398Q463 329 463 234Q463 136 394 69Q326 0 229 0Z"  horiz-adv-x="605" vert-adv-y="1000"  />

      
      <glyph glyph-name="uni36" unicode="&#x36;" d="M67 205Q64 235 64 267Q64 431 132 549Q214 693 375 700Q388 700 388 687Q388 675 377 675Q233 668 154 537Q104 452 92 331Q120 387 174 420Q228 453 293 453Q387 453 453.50 387Q520 321 521 227Q520 133 453.50 66.50Q387 0 293 0Q205 0 141 57.50Q77 115 68 201Q67 202 67 205M92 227Q92 143 151 84Q210 25 293 25Q377 25 435.50 84Q494 143 496 227Q494 311 435.50 369.50Q377 428 293 428Q210 428 151 369Q92 310 92 227Z"  horiz-adv-x="642" vert-adv-y="1000"  />

      
      <glyph glyph-name="uni37" unicode="&#x37;" d="M178 1Q167 6 171 18L446 673L77 673Q64 673 64 686Q64 691 68 695Q72 699 77 699L467 699Q472 699 476 694.50Q480 690 480 686Q480 683 476 677L194 8Q192 0 183 0L181 0Q179 1 178 1Z"  horiz-adv-x="587" vert-adv-y="1000"  />

      
      <glyph glyph-name="uni38" unicode="&#x38;" d="M139 561Q139 619 179.50 659.50Q220 700 278 700Q335 700 375.50 659.50Q416 619 416 561Q416 520 394 486.50Q372 453 337 436Q408 416 454.50 357Q501 298 501 222Q501 130 435.50 65Q370 0 278 0Q186 0 120.50 65Q55 130 55 222Q55 298 101.50 357Q148 416 219 436Q183 453 161 486.50Q139 520 139 561M138 362Q138 362 109 333Q80 304 80 222Q80 140 138 82.50Q196 25 278 25Q360 25 418 82.50Q476 140 476 222Q476 304 418 362Q360 420 278 420Q196 420 138 362M197.50 641Q197.50 641 180.75 624.50Q164 608 164 561Q164 514 197.50 481Q231 448 278 448Q324 448 357.50 481Q391 514 391 561Q391 608 358 641Q325 674 278 675Q231 674 197.50 641Z"  horiz-adv-x="630" vert-adv-y="1000"  />

      
      <glyph glyph-name="uni39" unicode="&#x39;" d="M133 313Q133 313 99.50 346Q66 379 66 473Q66 567 133 633.50Q200 700 294 700Q382 700 446.50 640Q511 580 519 492Q523 467 523 433Q523 270 455 151Q369 7 212 0Q199 0 199 13Q198 17 201.50 21Q205 25 210 25Q354 32 432 163Q483 252 494 368Q466 313 412 280Q358 247 294 247Q200 247 133 313M91 473Q91 390 150.50 331Q210 272 294 272Q377 272 436 331Q495 390 495 473Q495 483 494 488L494 492L494 493Q486 570 429 622.50Q372 675 294 675Q210 675 150.50 616Q91 557 91 473Z"  horiz-adv-x="642" vert-adv-y="1000"  />

      
      <glyph glyph-name="uni3a" unicode="&#x3a;" d="M87 481Q87 495 96.50 504.50Q106 514 120 514Q134 514 143.50 504.50Q153 495 153 481L153 454Q153 440 143.50 430.50Q134 421 120 421Q106 421 96.50 430.50Q87 440 87 454L87 481M87 56Q87 70 96.50 79.50Q106 89 120 89Q134 89 143.50 79.50Q153 70 153 56L153 29Q153 15 143.50 5.50Q134-4 120-4Q106-4 96.50 5.50Q87 15 87 29L87 56Z"  horiz-adv-x="240" vert-adv-y="1000"  />

      
      <glyph glyph-name="uni3b" unicode="&#x3b;" d="M87 481Q87 495 96.50 504.50Q106 514 120 514Q134 514 143.50 504.50Q153 495 153 481L153 454Q153 440 143.50 430.50Q134 421 120 421Q106 421 96.50 430.50Q87 440 87 454L87 481M59-90Q59-82 67-77Q118-49 114 0Q87 7 87 35L87 56Q87 70 96.50 79.50Q106 89 120 89Q134 89 143.50 79.50Q153 70 153 56L153 31Q153-46 126-73Q94-105 74-105Q59-105 59-90Z"  horiz-adv-x="240" vert-adv-y="1000"  />

      
      <glyph glyph-name="uni037E" unicode="&#x037E;" d="M87 481Q87 495 96.50 504.50Q106 514 120 514Q134 514 143.50 504.50Q153 495 153 481L153 454Q153 440 143.50 430.50Q134 421 120 421Q106 421 96.50 430.50Q87 440 87 454L87 481M59-90Q59-82 67-77Q118-49 114 0Q87 7 87 35L87 56Q87 70 96.50 79.50Q106 89 120 89Q134 89 143.50 79.50Q153 70 153 56L153 31Q153-46 126-73Q94-105 74-105Q59-105 59-90Z"  horiz-adv-x="240" vert-adv-y="1000"  />

      
      <glyph glyph-name="uni3c" unicode="&#x3c;" d="M396 4L66 337Q65 337 65 338Q61 342 61 344Q60 346 60 350Q61 353 63 357L65 359L66 360L396 694Q407 705 418 694Q425 683 418 672L96 348L418 25Q425 15 418 4Q414 0 406 0Q400 0 396 4Z"  horiz-adv-x="620" vert-adv-y="1000"  />

      
      <glyph glyph-name="uni3d" unicode="&#x3d;" d="M94 231Q79 231 79 244Q79 260 94 260L436 260Q442 260 446.50 255Q451 250 451 244Q451 231 436 231L94 231M94 439Q79 439 79 451Q79 466 94 466L436 466Q442 466 446.50 461.50Q451 457 451 451Q451 446 446.50 442.50Q442 439 436 439L94 439Z"  horiz-adv-x="620" vert-adv-y="1000"  />

      
      <glyph glyph-name="uni3e" unicode="&#x3e;" d="M115 4Q111 0 105 0Q97 0 93 4Q86 15 93 25L414 348L93 672Q86 683 93 694Q104 705 115 694L444 360L445 360L446 359Q446 358 446.50 358Q447 358 447 357Q448 356 450 352L450 346L450 344Q449 343 447 339L446 338L445 337L115 4Z"  horiz-adv-x="620" vert-adv-y="1000"  />

      
      <glyph glyph-name="uni3f" unicode="&#x3f;" d="M212 155L212 286L212 288L212 289Q212 301 224 301Q300 301 355 356Q410 411 410 488Q410 566 355.50 621Q301 676 224 676Q172 676 129 650.50Q86 625 61 582Q54 573 45 578Q34 585 41 594Q68 643 117 671.50Q166 700 224 700Q310 700 372.50 638Q435 576 435 488Q435 404 376.50 343Q318 282 236 277L236 155Q236 150 232 146.50Q228 143 224 143Q212 143 212 155M212 12L212 35Q212 47 224 47Q228 47 232 43.50Q236 40 236 35L236 12Q236 0 224 0Q212 0 212 12Z"  horiz-adv-x="534" vert-adv-y="1000"  />

      
      <glyph glyph-name="uni40" unicode="&#x40;" d="M155.50 102.50Q155.50 102.50 104.25 153.75Q53 205 53 350Q53 495 155.50 598Q258 701 403 701Q548 701 651 598.50Q754 496 754 350Q754 265 715 190Q712 184 705 173.50Q698 163 676.50 144Q655 125 630 118Q626 118 620 117.50Q614 117 611 117Q579 117 564 141Q550 158 550 181L550 257Q527 216 488 192Q449 168 403 168Q333 168 282 222Q231 276 231 350Q231 425 281.50 478Q332 531 403 531Q474 531 524 478Q574 425 574 350L574 343L574 340L574 184Q574 169 584 156Q595 143 611 143Q620 143 624 146Q658 152 688 194L693 203Q728 271 728 350Q728 485 633 580Q538 675 403 675Q269 675 174 580Q79 485 79 350Q79 216 174 121Q269 26 403 26Q447 26 483 36Q495 38 500 27Q502 15 490 10Q445 0 403 0Q258 0 155.50 102.50M257 350Q257 286 300 240Q343 194 403 194Q463 194 506.50 240Q550 286 550 350Q550 415 506.50 461Q463 507 403 507Q343 507 300 461Q257 415 257 350Z"  horiz-adv-x="980" vert-adv-y="1000"  />

      
      <glyph glyph-name="uni41" unicode="&#x41;" d="M564 11L497 190L147 190L80 11Q78 2 69 2L67 2Q65 3 64 3Q53 8 58 20L310 692Q313 702 323 700Q331 700 336 692L588 20Q593 9 581 3Q580 3 578 2L577 2Q569 2 564 11M322 654L157 216L487 216L322 654Z"  horiz-adv-x="646" vert-adv-y="1000"  />

      
      <glyph glyph-name="uni42" unicode="&#x42;" d="M104 13L104 687Q104 700 117 700L119 700L277 700Q347 700 396.50 650.50Q446 601 446 532Q446 485 422.50 446Q399 407 359 385Q427 372 472 318.50Q517 265 517 195Q517 114 460.50 57Q404 0 323 0L119 0L117 0Q104 0 104 13M129 25L323 25Q393 25 442 74.50Q491 124 491 195Q491 264 442 313.50Q393 363 323 363L129 363L129 25M129 390L277 390Q336 390 377.50 431.50Q419 473 420 532Q419 590 377.50 632Q336 674 277 675L129 675L129 390Z"  horiz-adv-x="594" vert-adv-y="1000"  />

      
      <glyph glyph-name="uni43" unicode="&#x43;" d="M73 356Q73 502 179.50 606Q286 710 436 710Q563 710 663 633Q674 624 667 615Q656 604 648 613Q556 684 436 684Q297 684 198 588Q99 492 99 356Q99 219 198 122.50Q297 26 436 26Q555 26 647 97L647 97Q658 104 666 95Q674 87 663 77Q560 0 436 0Q286 1 179.50 105Q73 209 73 356Z"  horiz-adv-x="771" vert-adv-y="1000"  />

      
      <glyph glyph-name="uni44" unicode="&#x44;" d="M104 13L104 687Q104 700 117 700L118 700L251 700Q396 700 498.50 597.50Q601 495 601 351Q601 205 498.50 102.50Q396 0 251 0L118 0L117 0Q104 0 104 13M129 25L251 25Q386 27 480.50 121.50Q575 216 576 351Q575 485 480.50 580Q386 675 251 675L129 675L129 25Z"  horiz-adv-x="719" vert-adv-y="1000"  />

      
      <glyph glyph-name="uni45" unicode="&#x45;" d="M119 0L118 0L116 0Q104 0 104 13L104 687Q104 698 116 700L117 700L118 700L489 700Q501 700 501 687Q501 675 489 675L129 675L129 363L446 363Q458 363 458 351Q458 338 446 338L129 338L129 25L489 25Q501 25 501 13Q501 0 489 0L119 0Z"  horiz-adv-x="593" vert-adv-y="1000"  />

      
      <glyph glyph-name="uni46" unicode="&#x46;" d="M104 13L104 687Q104 700 115 700L117 700L118 700L489 700Q501 700 501 687Q501 675 489 675L128 675L128 363L446 363Q458 363 458 351Q458 338 446 338L128 338L128 13Q128 0 115 0Q104 0 104 13Z"  horiz-adv-x="605" vert-adv-y="1000"  />

      
      <glyph glyph-name="uni47" unicode="&#x47;" d="M652 332L437 332Q432 332 428 336Q424 340 424 344Q424 350 428 354Q432 358 437 358L664 358L666 358Q678 358 678 344L678 90Q678 88 677 87L677 85Q676 80 673 78Q572 0 443 0Q290 1 181.50 106.50Q73 212 73 362Q73 510 181.50 615.50Q290 721 443 721Q574 721 673 643Q684 635 676 623Q667 612 657 622Q564 696 443 696Q301 696 200 598Q99 500 99 362Q99 223 199.50 124.50Q300 26 443 26Q559 26 652 95L652 332Z"  horiz-adv-x="814" vert-adv-y="1000"  />

      
      <glyph glyph-name="uni48" unicode="&#x48;" d="M527 13L527 338L129 338L129 13Q129 8 125.50 4Q122 0 117 0Q104 0 104 13L104 687Q104 700 117 700Q122 700 125.50 696Q129 692 129 687L129 363L527 363L527 687Q527 700 539 700Q552 700 552 687L552 13Q552 0 539 0Q527 0 527 13Z"  horiz-adv-x="709" vert-adv-y="1000"  />

      
      <glyph glyph-name="uni49" unicode="&#x49;" d="M111 13L111 687Q111 700 124 700Q136 700 136 687L136 13Q136 0 124 0Q111 0 111 13Z"  horiz-adv-x="305" vert-adv-y="1000"  />

      
      <glyph glyph-name="uni4a" unicode="&#x4a;" d="M45 162Q43 166 45 171Q47 176 52 178Q64 181 69 170Q89 106 143.50 65.50Q198 25 266 25Q352 27 413 87.50Q474 148 475 234L475 687Q475 700 486 700Q499 700 499 687L499 234Q499 137 431 68.50Q363 0 266 0Q189 0 128.50 45.50Q68 91 45 162Z"  horiz-adv-x="594" vert-adv-y="1000"  />

      
      <glyph glyph-name="uni4b" unicode="&#x4b;" d="M104 13L104 686Q104 699 117 699Q122 699 126 694.50Q130 690 130 686L130 236L589 695Q599 703 607 695Q616 686 607 677L321 391L608 22Q616 11 607 4Q603 0 599 0Q596 0 589 5L303 373L132 201L130 199L130 13Q130 8 126 4Q122 0 117 0Q104 0 104 13Z"  horiz-adv-x="715" vert-adv-y="1000"  />

      
      <glyph glyph-name="uni4c" unicode="&#x4c;" d="M490 0L119 0L117 0Q104 0 104 13L104 687Q104 700 117 700Q129 700 129 687L129 25L490 25Q503 25 503 13Q503 0 490 0Z"  horiz-adv-x="563" vert-adv-y="1000"  />

      
      <glyph glyph-name="uni4d" unicode="&#x4d;" d="M664 13L664 649L409 294Q404 289 398 289L396 289Q388 289 385 294L129 650L129 13Q129 0 117 0Q104 0 104 13L104 686Q104 691 108 695Q112 699 117 699Q119 699 120 698Q123 698 129 694L397 322L665 694Q669 698 673 698Q674 699 676 699Q689 699 689 686L689 13Q689 0 676 0Q671 0 667.50 4Q664 8 664 13Z"  horiz-adv-x="844" vert-adv-y="1000"  />

      
      <glyph glyph-name="uni4e" unicode="&#x4e;" d="M589 9L129 648L129 13Q129 0 117 0Q112 0 108 4Q104 8 104 13L104 682L104 685Q104 691 109 696Q120 702 127 694L589 52L589 682Q589 687 593 691Q597 695 602 695Q614 695 614 682L614 13Q614 0 602 0Q593 0 590 8Q589 8 589 9Z"  horiz-adv-x="771" vert-adv-y="1000"  />

      
      <glyph glyph-name="uni4f" unicode="&#x4f;" d="M73 349Q74 499 173 604.50Q272 710 414 710Q555 710 654.50 604.50Q754 499 756 349Q754 198 655 92.50Q556-13 414-13Q272-13 173 92.50Q74 198 73 349M100 349Q100 211 192 113.50Q284 16 414 14Q543 16 635 113.50Q727 211 728 349Q727 488 635 586Q543 684 414 684Q285 684 192.50 586Q100 488 100 349Z"  horiz-adv-x="850" vert-adv-y="1000"  />

      
      <glyph glyph-name="uni50" unicode="&#x50;" d="M104 13L104 687Q104 700 117 700L119 700L322 700Q402 700 459.50 643Q517 586 517 505Q517 424 460 367.50Q403 311 322 311L129 311L129 13Q129 0 117 0Q104 0 104 13M129 337L322 337Q392 337 441.50 386Q491 435 491 505Q491 575 441.50 625Q392 675 322 675L129 675L129 337Z"  horiz-adv-x="583" vert-adv-y="1000"  />

      
      <glyph glyph-name="uni51" unicode="&#x51;" d="M807-71Q815-80 805-90Q730-148 650-148Q572-148 476-91Q435-66 384-66Q332-66 279-91Q267-97 260.50-85Q254-73 266-66L409 1L400 1Q263 1 165 104.50Q67 208 66 354Q67 501 165 605.50Q263 710 400 710Q539 710 637.50 605.50Q736 501 736 354Q736 246 678 156.50Q620 67 527 26L384-41Q443-41 488-69Q580-123 650-123Q722-123 789-69Q799-61 807-71M93 354Q93 218 183.50 122Q274 26 400 26Q529 26 620 122Q711 218 711 354Q711 492 620 587.50Q529 683 400 683Q274 683 183.50 587Q93 491 93 354Z"  horiz-adv-x="844" vert-adv-y="1000"  />

      
      <glyph glyph-name="uni52" unicode="&#x52;" d="M484 38Q465 70 465 151Q465 214 415 259Q357 311 238 311L115 311L115 13Q115 0 103 0Q90 0 90 13L90 687Q90 700 103 700L104 700L105 700L308 700Q388 700 445.50 643Q503 586 503 505Q503 439 464 387.50Q425 336 363 319Q381 312 399 301Q490 249 490 151Q490 79 505 49Q511 37 521 37Q535 39 537 27Q538 18 533 14.50Q528 11 520 11Q498 11 484 38M115 337L308 337L310 337Q379 338 428 386.50Q477 435 477 505Q477 575 427.50 625Q378 675 308 675L115 675L115 337Z"  horiz-adv-x="625" vert-adv-y="1000"  />

      
      <glyph glyph-name="uni53" unicode="&#x53;" d="M326-5Q285-5 243 5.50Q201 16 172 29.50Q143 43 117 59Q91 75 80.50 83.50Q70 92 66 96Q56 106 65 114Q74 124 83 115Q91 107 115.50 89Q140 71 202.50 45.50Q265 20 326 20Q427 20 496.50 70Q566 120 566 193Q566 220 558.50 241.50Q551 263 533 279Q515 295 499 305.50Q483 316 452.50 326Q422 336 402.50 341Q383 346 346 355Q307 364 287 369.50Q267 375 234 386Q201 397 183.50 409Q166 421 146.50 439Q127 457 118.50 482Q110 507 110 538Q110 606 173.50 655Q237 704 327 704Q366 704 402 695.50Q438 687 461 675.50Q484 664 503.50 650.50Q523 637 530.50 629.50Q538 622 540 619Q548 610 539 601Q528 594 521 602Q445 678 327 678Q248 678 192 637Q136 596 136 538Q136 507 149 483Q162 459 178.50 444Q195 429 229 415.50Q263 402 285.50 396Q308 390 352 380Q391 371 411.50 365.50Q432 360 465.50 349Q499 338 517 325.50Q535 313 554.50 294.50Q574 276 582.50 250.50Q591 225 591 193Q591 110 514.50 52.50Q438-5 326-5Z"  horiz-adv-x="667" vert-adv-y="1000"  />

      
      <glyph glyph-name="uni54" unicode="&#x54;" d="M294 13L294 675L63 675Q50 675 50 687Q50 700 63 700L550 700Q563 700 563 687Q563 675 550 675L320 675L320 13Q320 8 316 4Q312 0 307 0Q294 0 294 13Z"  horiz-adv-x="648" vert-adv-y="1000"  />

      
      <glyph glyph-name="uni55" unicode="&#x55;" d="M105 281L105 687Q105 700 118 700Q130 700 130 687L130 281Q130 175 204.50 101Q279 27 385 25Q490 27 564.50 101Q639 175 640 281L640 687Q640 700 653 700Q658 700 662 696Q666 692 666 687L666 281Q666 164 583.50 82Q501 0 385 0Q269 0 187 82Q105 164 105 281Z"  horiz-adv-x="814" vert-adv-y="1000"  />

      
      <glyph glyph-name="uni56" unicode="&#x56;" d="M349 1Q348 1 346 3Q344 4 342 8L59 681Q53 693 65 697Q76 702 83 691L354 46L626 691Q630 703 642 697Q653 694 649 681L366 8L365 7Q364 2 359 1L358 1Q357 0 354 0L353 0L351 0L349 1Z"  horiz-adv-x="750" vert-adv-y="1000"  />

      
      <glyph glyph-name="uni57" unicode="&#x57;" d="M764 9L568 478L370 8Q367 0 358 0Q351 0 347 8L64 681Q61 686 63 690.50Q65 695 70 697Q81 703 87 691L358 45L554 510Q557 519 567 519Q576 521 581 510L776 45L1048 691Q1055 701 1065 697Q1078 693 1072 681L789 8Q785 0 777 0Q768 0 764 9Z"  horiz-adv-x="1102" vert-adv-y="1000"  />

      
      <glyph glyph-name="uni58" unicode="&#x58;" d="M79 3Q70 11 77 20L317 349L77 679Q69 689 79 696Q89 704 97 694L332 371L568 694Q575 703 586 696Q595 689 589 679L348 349L589 20Q594 11 586 3Q582 0 578 0Q576 0 568 5L332 328L97 5Q89 0 87 0Q84 0 79 3Z"  horiz-adv-x="722" vert-adv-y="1000"  />

      
      <glyph glyph-name="uni59" unicode="&#x59;" d="M304 13L304 342L59 679Q49 689 62 696Q71 704 79 694L317 367L554 694Q563 703 572 696Q583 688 576 679L329 342L329 13Q329 0 317 0Q304 0 304 13Z"  horiz-adv-x="604" vert-adv-y="1000"  />

      
      <glyph glyph-name="uni5a" unicode="&#x5a;" d="M549 673L84 673Q71 673 71 686Q71 699 84 699L575 699Q588 699 588 686Q588 685 588 683L587 681L586 679L583 676L108 25L575 25Q588 25 588 13Q588 0 575 0L85 0L84 0Q71 0 71 13Q71 20 76 23L549 673Z"  horiz-adv-x="667" vert-adv-y="1000"  />

      
      <glyph glyph-name="uni5b" unicode="&#x5b;" d="M98-104L98 674Q98 684 106 692Q114 700 124 700L356 700Q374 700 374 686Q374 676 356 676L123 676L123-106L356-106Q374-106 374-119Q374-130 356-130L124-130Q114-130 106-122Q98-114 98-104Z"  horiz-adv-x="430" vert-adv-y="1000"  />

      
      <glyph glyph-name="uni5c" unicode="&#x5c;" d="M364 2Q363 1 359 1Q350 1 348 9L63 682Q59 694 71 698Q75 700 80 698Q85 696 87 691L370 19Q375 7 364 2Z"  horiz-adv-x="448" vert-adv-y="1000"  />

      
      <glyph glyph-name="uni5d" unicode="&#x5d;" d="M331 674L331-104Q331-114 323.50-122Q316-130 305-130L73-130Q55-130 55-119Q55-106 73-106L306-106L306 676L73 676Q55 676 55 686Q55 700 73 700L305 700Q316 700 323.50 692Q331 684 331 674Z"  horiz-adv-x="430" vert-adv-y="1000"  />

      
      <glyph glyph-name="uni5e" unicode="&#x5e;" d="M93 173Q85 174 83 186Q81 198 87 202L266 339Q279 349 288 349Q297 349 310 339L488 202Q497 196 497 181Q497 173 491.50 170.50Q486 168 479.50 170Q473 172 467 177L289 318L109 177Q103 172 93 173Z"  horiz-adv-x="500" vert-adv-y="1000"  />

      
      <glyph glyph-name="uni5f" unicode="&#x5f;" d="M-2-160Q-24-160-24-143Q-24-126-2-126L332-126Q354-126 354-143Q354-160 332-160L-2-160Z"  horiz-adv-x="600" vert-adv-y="1000"  />

      
      <glyph glyph-name="uni60" unicode="&#x60;" d="M271 598Q255 604 247 613L176 690Q163 703 166 708Q166 709 167 713.50Q168 718 171.50 720.50Q175 723 184 723Q200 723 212 705L274 612Q278 606 278 601Q278 594 271 598Z"  horiz-adv-x="500" vert-adv-y="1000"  />

      
      <glyph glyph-name="uni61" unicode="&#x61;" d="M490 490Q502 490 502 477L502 13Q502 0 490 0Q477 0 477 13L477 135Q448 74 392.50 37Q337 0 271 0Q175 0 107.50 72Q40 144 40 245Q40 346 107.50 418Q175 490 271 490Q337 490 392.50 453Q448 416 477 355L477 477Q477 490 490 490M125.50 89.50Q125.50 89.50 155.75 57.25Q186 25 271 25Q356 25 416.50 89.50Q477 154 477 245Q477 336 416.50 400Q356 464 271 464Q186 464 125.50 400Q65 336 65 245Q65 154 125.50 89.50Z"  horiz-adv-x="619" vert-adv-y="1000"  />

      
      <glyph glyph-name="uni62" unicode="&#x62;" d="M93 13L93 234L93 246L93 256L93 685Q93 700 106 700Q110 700 114 695Q118 690 118 685L118 355Q148 416 204.50 453Q261 490 329 490Q428 490 497.50 418.50Q567 347 567 246Q567 145 497.50 72.50Q428 0 329 0Q261 0 204.50 37Q148 74 118 134L118 13Q118 8 114.50 4Q111 0 106 0Q93 0 93 13M118 255L118 246Q118 155 180 90Q242 25 329 25Q417 25 479.50 90Q542 155 542 246Q542 337 479.50 401Q417 465 329 465Q245 465 183 403.50Q121 342 118 255Z"  horiz-adv-x="660" vert-adv-y="1000"  />

      
      <glyph glyph-name="uni63" unicode="&#x63;" d="M132 72.50Q132 72.50 95 108.25Q58 144 58 245Q58 346 132 418Q206 490 310 490Q399 490 466 437Q474 429 467 418Q461 410 450 417Q388 465 310 465Q215 465 149 400.50Q83 336 83 245Q83 154 149 89.50Q215 25 310 25Q386 25 450 74Q460 80 467 71Q474 61 466 53Q397 0 310 0Q206 1 132 72.50Z"  horiz-adv-x="571" vert-adv-y="1000"  />

      
      <glyph glyph-name="uni64" unicode="&#x64;" d="M534 13Q534 0 521 0Q516 0 512.50 4Q509 8 509 13L509 134Q479 74 422.50 37Q366 0 298 0Q199 0 129.50 72.50Q60 145 60 246Q60 347 129.50 418.50Q199 490 298 490Q366 490 422.50 453Q479 416 509 355L509 685Q509 690 513 695Q517 700 521 700Q534 700 534 685L534 256L534 246L534 234L534 13M509 246L509 255Q506 342 444 403.50Q382 465 298 465Q210 465 147.50 401Q85 337 85 246Q85 155 147.50 90Q210 25 298 25Q385 25 447 90Q509 155 509 246Z"  horiz-adv-x="660" vert-adv-y="1000"  />

      
      <glyph glyph-name="uni65" unicode="&#x65;" d="M296 0Q198 1 129 72.50Q60 144 58 245Q60 347 129 418.50Q198 490 296 490Q389 490 456.50 425Q524 360 531 264L531 263L531 261L531 260Q529 248 519 248L83 248L83 245Q83 155 145.50 90.50Q208 26 296 25Q351 25 397.50 52Q444 79 472 125Q478 133 490 128Q500 122 493 111Q461 61 408.50 30.50Q356 0 296 0M296 464Q215 464 154.50 409Q94 354 84 272L506 272Q496 354 436 409Q376 464 296 464Z"  horiz-adv-x="609" vert-adv-y="1000"  />

      
      <glyph glyph-name="uni66" unicode="&#x66;" d="M280 701Q293 701 293 689Q293 676 280 676Q228 676 207 652Q184 627 184 560L184 494L268 494Q280 494 280 481Q280 468 268 468L184 468L184 14Q184 1 171 1Q158 1 158 14L158 468L78 468Q65 468 65 481Q65 494 78 494L158 494L158 560Q158 635 188 669Q217 701 280 701Z"  horiz-adv-x="362" vert-adv-y="1000"  />

      
      <glyph glyph-name="uni67" unicode="&#x67;" d="M509 490Q522 490 522 477L522 28Q522-68 454.50-136Q387-204 291-204Q240-204 189-180Q179-173 184-163Q189-154 201-157Q245-179 291-179Q377-177 437-117Q497-57 497 28L497 135Q469 75 413 37.50Q357 0 291 0Q195 0 127.50 72Q60 144 60 245Q60 346 127.50 418Q195 490 291 490Q357 490 413 453Q469 416 497 356L497 477Q497 482 500.50 486Q504 490 509 490M436.50 90Q436.50 90 466.75 122Q497 154 497 245Q497 336 436.50 400.50Q376 465 291 465Q206 465 145.50 400.50Q85 336 85 245Q85 154 145.50 90Q206 26 291 26Q376 26 436.50 90Z"  horiz-adv-x="660" vert-adv-y="1000"  />

      
      <glyph glyph-name="uni68" unicode="&#x68;" d="M465 13L465 291Q465 363 414.50 413.50Q364 464 292 464Q222 464 171.50 415.50Q121 367 118 298L118 13Q118 5 113 2Q109 0 108 0L106 0Q102 0 97 3Q93 7 93 11L93 13L93 291L93 299L93 687Q93 700 106 700Q118 700 118 687L118 387Q144 434 190.50 462Q237 490 292 490Q374 490 432 432Q490 374 490 291L490 13Q490 8 486.50 4Q483 0 478 0Q465 0 465 13Z"  horiz-adv-x="613" vert-adv-y="1000"  />

      
      <glyph glyph-name="uni69" unicode="&#x69;" d="M94 13L94 478Q94 490 107 490Q119 490 119 478L119 13Q119 8 115.50 4Q112 0 107 0Q94 0 94 13M94 611L94 635Q94 648 107 648Q119 648 119 635L119 611Q119 606 115.50 602.50Q112 599 107 599Q94 599 94 611Z"  horiz-adv-x="281" vert-adv-y="1000"  />

      
      <glyph glyph-name="uni6a" unicode="&#x6a;" d="M-5-192Q-5-178 7-178Q28-178 43-163Q58-148 58-126L58 478Q58 490 70 490Q75 490 79.50 486.50Q84 483 84 478L84-126Q84-158 61.50-180.50Q39-203 7-203Q-5-203-5-192M60 613L60 637Q60 650 73 650Q78 650 82.50 646Q87 642 87 637L87 613Q87 608 82.50 604.50Q78 601 73 601Q60 601 60 613Z"  horiz-adv-x="249" vert-adv-y="1000"  />

      
      <glyph glyph-name="uni6b" unicode="&#x6b;" d="M93 13L93 687Q93 700 106 700Q111 700 114.50 696Q118 692 118 687L118 168L440 490Q448 498 458 490Q467 481 458 472L255 269L458 22Q465 12 456 3Q453 0 449 0Q442 0 439 5L236 250L121 135Q119 133 118 133L118 13Q118 8 114.50 4Q111 0 106 0Q93 0 93 13Z"  horiz-adv-x="560" vert-adv-y="1000"  />

      
      <glyph glyph-name="uni6c" unicode="&#x6c;" d="M100 13L100 687Q100 700 113 700Q125 700 125 687L125 13Q125 0 113 0Q100 0 100 13Z"  horiz-adv-x="249" vert-adv-y="1000"  />

      
      <glyph glyph-name="uni6d" unicode="&#x6d;" d="M829 13L829 292Q829 364 779 414.50Q729 465 659 465Q589 465 539 416.50Q489 368 487 299L487 292L487 13Q487 10 486 9Q486 8 486 8L485 6Q484 5 484 4Q480 0 474 0Q462 0 462 13L462 292Q462 364 411.50 414.50Q361 465 290 465Q221 465 171 416.50Q121 368 119 299L119 13Q119 10 117 6Q116 5 116 4L115 4L114 3Q111 0 107 0L104 0Q93 2 93 13L93 292Q93 300 95 316L95 477Q95 490 107 490Q119 490 119 477L119 388Q145 435 190.50 462.50Q236 490 290 490Q352 490 402.50 454.50Q453 419 474 362Q495 419 545.50 454.50Q596 490 659 490Q740 490 797 432Q854 374 854 292L854 13Q854 0 842 0Q837 0 833 4Q829 8 829 13Z"  horiz-adv-x="951" vert-adv-y="1000"  />

      
      <glyph glyph-name="uni6e" unicode="&#x6e;" d="M463 13L463 292Q463 364 412.50 414.50Q362 465 291 465Q220 465 169 414.50Q118 364 118 292L118 13Q118 8 115 5Q112 0 106 0L104 0L102 0L101 1Q100 2 99 2Q98 2 96 4Q95 5 95 6Q93 8 93 11L93 13L93 292L93 300L93 478Q93 490 106 490Q118 490 118 478L118 388Q144 434 190 462Q236 490 291 490Q372 490 430 432Q488 374 488 292L488 13Q488 0 475 0Q463 0 463 13Z"  horiz-adv-x="613" vert-adv-y="1000"  />

      
      <glyph glyph-name="uni6f" unicode="&#x6f;" d="M137.50 72Q137.50 72 103.75 108Q70 144 70 245Q70 346 137.50 418Q205 490 301 490Q397 490 465 418Q533 346 533 245Q533 144 465 72Q397 0 301 0Q205 0 137.50 72M155.50 400.50Q155.50 400.50 125.25 368.25Q95 336 95 245Q95 154 155.50 89.50Q216 25 301 25Q386 25 447 89.50Q508 154 508 245Q508 336 447 400.50Q386 465 301 465Q216 465 155.50 400.50Z"  horiz-adv-x="625" vert-adv-y="1000"  />

      
      <glyph glyph-name="uni70" unicode="&#x70;" d="M93-201L93 238L93 248L93 258L93 477Q93 490 106 490Q118 490 118 477L118 356Q147 417 203.50 453.50Q260 490 327 490Q426 490 494.50 419.50Q563 349 563 248Q563 147 494.50 76Q426 5 327 5Q260 5 203.50 41.50Q147 78 118 138L118-201Q118-214 106-214Q93-214 93-201M118 257L118 248Q118 158 179.50 94.50Q241 31 327 31Q413 31 475 94.50Q537 158 537 248Q537 337 475 401Q413 465 327 465Q244 465 182.50 404Q121 343 118 257Z"  horiz-adv-x="660" vert-adv-y="1000"  />

      
      <glyph glyph-name="uni71" unicode="&#x71;" d="M530-201Q530-214 517-214Q505-214 505-201L505 138Q476 78 419.50 41.50Q363 5 296 5Q197 5 128.50 76Q60 147 60 248Q60 349 128.50 419.50Q197 490 296 490Q363 490 419.50 453.50Q476 417 505 356L505 477Q505 490 517 490Q530 490 530 477L530 258L530 248L530 238L530-201M505 248L505 257Q502 343 440.50 404Q379 465 296 465Q210 465 148 401Q86 337 86 248Q86 158 148 94.50Q210 31 296 31Q382 31 443.50 94.50Q505 158 505 248Z"  horiz-adv-x="660" vert-adv-y="1000"  />

      
      <glyph glyph-name="uni72" unicode="&#x72;" d="M94 13L94 242Q93 244 94 248L94 477Q94 482 97.50 486Q101 490 106 490Q118 490 118 477L118 311Q132 344 149 369Q230 490 344 490Q357 490 357 477Q357 464 344 464Q262 464 202 397Q161 350 130 276L118 242L118 13Q118 0 106 0Q94 0 94 13Z"  horiz-adv-x="439" vert-adv-y="1000"  />

      
      <glyph glyph-name="uni73" unicode="&#x73;" d="M251 0Q205 0 158 18.50Q111 37 92.50 50.50Q74 64 67 71Q58 80 66 89Q76 98 84 90Q90 84 106.50 72Q123 60 166 42.50Q209 25 251 25Q318 25 365.50 59Q413 93 413 141Q413 159 408 173.50Q403 188 390.50 199Q378 210 367.50 217Q357 224 335 231Q313 238 301.50 241Q290 244 263 250Q230 258 214.50 262Q199 266 171.50 277.50Q144 289 131 301Q118 313 107 334Q96 355 96 381Q96 430 141.50 465Q187 500 251 500Q295 500 333 484.50Q371 469 384.50 457.50Q398 446 402 440Q410 432 401 422Q391 413 383 423Q332 474 251 474Q198 474 160 447Q122 420 122 381Q122 356 132.50 338Q143 320 167.50 308Q192 296 211 290Q230 284 269 275Q301 268 318.50 263Q336 258 362.50 247.50Q389 237 403 224Q417 211 428 189.50Q439 168 439 141Q439 82 384.50 41Q330 0 251 0Z"  horiz-adv-x="492" vert-adv-y="1000"  />

      
      <glyph glyph-name="uni74" unicode="&#x74;" d="M244 490Q257 490 257 477Q257 465 244 465L164 465L164 75Q164 54 179 39Q194 24 215 24Q228 24 228 12Q228-1 215-1Q184-1 161.50 21.50Q139 44 139 75L139 465L55 465Q42 465 42 477Q42 490 55 490L139 490L139 686Q139 699 151 699Q164 699 164 686L164 490L244 490Z"  horiz-adv-x="400" vert-adv-y="1000"  />

      
      <glyph glyph-name="uni75" unicode="&#x75;" d="M83 198L83 477Q83 490 96 490Q101 490 104.50 486Q108 482 108 477L108 198Q108 126 158 75.50Q208 25 279 25Q350 25 400.50 75.50Q451 126 451 198L451 477Q451 482 455 486Q459 490 464 490Q477 490 477 477L477 198Q477 116 419 58Q361 0 279 0Q198 0 140.50 58Q83 116 83 198Z"  horiz-adv-x="613" vert-adv-y="1000"  />

      
      <glyph glyph-name="uni76" unicode="&#x76;" d="M251 8L56 471Q51 481 63 487Q74 492 79 480L263 45L447 480Q451 493 462 487Q475 481 470 471L275 9Q275 7 273 5Q268 0 264 0L263 0L260 0Q254 2 251 8Z"  horiz-adv-x="582" vert-adv-y="1000"  />

      
      <glyph glyph-name="uni77" unicode="&#x77;" d="M551 1Q549 1 547 3Q545 5 545 6Q544 6 544 7L544 8L412 322L280 8Q277 1 271 0L267 0L265 0Q264 0 260 2Q255 5 255 10L61 471Q55 483 68 487Q79 493 85 481L268 45L399 357Q402 366 413 364Q420 364 425 357L556 45L740 481Q744 492 756 487Q761 485 763 480Q765 475 763 471L568 8Q568 5 564 3Q560 0 557 0Q553 0 551 1Z"  horiz-adv-x="861" vert-adv-y="1000"  />

      
      <glyph glyph-name="uni78" unicode="&#x78;" d="M73 3Q63 9 71 20L235 245L71 469Q63 478 73 486Q84 492 91 483L251 265L408 483Q418 493 426 486Q437 478 430 469L267 245L430 20Q438 9 426 3Q425 0 420 0Q412 0 408 5L251 223L91 5Q87 0 81 0Q76 0 73 3Z"  horiz-adv-x="570" vert-adv-y="1000"  />

      
      <glyph glyph-name="uni79" unicode="&#x79;" d="M52 198L52 477Q52 490 65 490Q70 490 73.50 486Q77 482 77 477L77 198Q77 127 127.50 77Q178 27 249 27Q317 27 366 75Q415 123 418 191L418 477L418 479Q418 480 420 484Q420 485 421 485L424 488Q428 490 431 490L433 490Q434 490 434 490L436 489L439 486L440 485Q443 482 443 477L443 28Q443-67 376-134.50Q309-202 213-202Q161-202 113-178Q101-173 108-161Q112-150 123-155Q167-177 213-177Q298-177 358-117Q418-57 418 28L418 102Q394 56 348.50 29Q303 2 249 2Q167 2 109.50 59.50Q52 117 52 198Z"  horiz-adv-x="588" vert-adv-y="1000"  />

      
      <glyph glyph-name="uni7a" unicode="&#x7a;" d="M390 464L76 464Q64 464 64 477Q64 490 76 490L412 490Q418 490 423 487Q426 485 428 479L428 477L428 475Q428 474 428 474L427 472Q426 469 422 465L100 25L415 25Q428 25 428 13Q428 0 415 0L76 0Q72 0 71 1Q67 3 66 4Q58 12 66 20L390 464Z"  horiz-adv-x="554" vert-adv-y="1000"  />

      
      <glyph glyph-name="uni7b" unicode="&#x7b;" d="M406-139Q287-115 246-68.50Q205-22 205 62L205 141Q205 205 178.50 236.50Q152 268 79 268Q55 268 55 287Q55 306 79 306Q152 306 178.50 337.50Q205 369 205 433L205 512Q205 596 246 642.50Q287 689 406 713Q427 717 427 704Q427 695 415 691Q309 663 271.50 623Q234 583 234 506L234 431Q234 368 207.50 335Q181 302 130 287Q184 269 209 237.50Q234 206 234 143L234 68Q234-9 271.50-49Q309-89 415-117Q427-121 427-131Q427-143 406-139Z"  horiz-adv-x="480" vert-adv-y="1000"  />

      
      <glyph glyph-name="uni7c" unicode="&#x7c;" d="M121-110L121 780Q121 802 134 802Q150 802 150 780L150-110Q150-132 134-132Q121-132 121-110Z"  horiz-adv-x="286" vert-adv-y="1000"  />

      
      <glyph glyph-name="uni7d" unicode="&#x7d;" d="M74-139Q53-143 53-131Q53-121 65-117Q171-89 208.50-49Q246-9 246 68L246 143Q246 206 271 237.50Q296 269 350 287Q299 302 272.50 335Q246 368 246 431L246 506Q246 583 208.50 623Q171 663 65 691Q53 695 53 704Q53 717 74 713Q193 689 234 642.50Q275 596 275 512L275 433Q275 369 301.50 337.50Q328 306 401 306Q425 306 425 287Q425 268 401 268Q328 268 301.50 236.50Q275 205 275 141L275 62Q275-22 234-68.50Q193-115 74-139Z"  horiz-adv-x="480" vert-adv-y="1000"  />

      
      <glyph glyph-name="uni7e" unicode="&#x7e;" d="M117 253Q111 241 101 241Q85 241 85 254Q85 256 89 268Q96 291 120 309.50Q144 328 165 328Q184 328 230 309Q276 290 293 290Q324 290 343 333Q343 334 345 339.50Q347 345 349.50 347.50Q352 350 356 350Q374 350 374 333Q374 327 372 321Q350 253 293 253Q275 253 229 272.50Q183 292 165 292Q134 292 117 253Z"  horiz-adv-x="460" vert-adv-y="1000"  />

      
      <glyph glyph-name="unia1" unicode="&#xa1;" d="M93 533Q93 545 106 545Q118 545 118 533L118 13Q118 0 106 0Q93 0 93 13L93 533M93 687Q93 700 106 700Q118 700 118 687L118 663Q118 658 114 654.50Q110 651 106 651Q93 651 93 663L93 687Z"  horiz-adv-x="252" vert-adv-y="1000"  />

      
      <glyph glyph-name="unia2" unicode="&#xa2;" d="M152-10Q140-6 145 6L166 47Q118 81 90 133Q62 185 62 244Q62 345 135.50 417Q209 489 313 489Q345 489 382 479L402 518Q404 523 409 525Q414 527 418 525Q423 524 425.50 519Q428 514 427 510L407 471Q438 459 469 436Q477 428 470 417Q464 409 453 416Q424 437 396 448L197 56Q250 25 313 25Q389 25 453 74Q463 80 470 71Q477 61 469 53Q400 0 313 0Q246 0 186 34L167-3Q167-11 157-11Q153-11 152-10M313 464Q219 464 153 399.50Q87 335 87 244Q87 191 111 145Q135 99 177 69L371 456Q341 464 313 464Z"  horiz-adv-x="581" vert-adv-y="1000"  />

      
      <glyph glyph-name="unia3" unicode="&#xa3;" d="M66-1Q66 8 78 9L156 18L156 311L90 311Q69 311 67 317Q66 319 66 322Q66 336 90 336L156 336L156 464Q156 580 221 645Q279 703 371 703Q492 703 571 610Q578 601 578 591Q578 586 576.50 583.50Q575 581 573.50 581Q572 581 567 581.50Q562 582 560 582Q556 582 551.50 586.50Q547 591 542 598Q537 605 536 606Q472 680 371 680Q335 680 298 665.50Q261 651 240 630Q215 605 198 558.50Q181 512 181 465L181 336L485 336Q509 336 509 322Q509 319 508.50 317Q508 315 506.50 314Q505 313 504 312Q503 311 500 311Q497 311 495.50 311Q494 311 490 311Q486 311 485 311L181 311L181 18L561 17Q583 13 585 5Q585-4 579.50-5.50Q574-7 561-7L79-7Q66-7 66-1Z"  horiz-adv-x="644" vert-adv-y="1000"  />

      
      <glyph glyph-name="unia5" unicode="&#xa5;" d="M303 13L303 177L145 177Q130 177 130 190Q130 206 145 206L303 206L303 330L145 330Q130 330 130 342Q130 357 145 357L292 357L58 679Q48 689 61 696Q70 704 78 694L316 367L553 694Q562 703 571 696Q582 688 575 679L339 357L487 357Q493 357 497.50 352.50Q502 348 502 342Q502 337 497.50 333.50Q493 330 487 330L328 330L328 206L487 206Q493 206 497.50 201Q502 196 502 190Q502 177 487 177L328 177L328 13Q328 0 316 0Q303 0 303 13Z"  horiz-adv-x="686" vert-adv-y="1000"  />

      
      <glyph glyph-name="unia8" unicode="&#xa8;" d="M143 613Q143 613 138 618Q133 623 133 637Q133 651 143 661Q153 671 167 671Q181 671 190.50 661Q200 651 200 637Q200 623 190.50 613Q181 603 167 603Q153 603 143 613M325 613Q325 613 320 618Q315 623 315 637Q315 651 325 661Q335 671 349 671Q363 671 373 661Q383 651 383 637Q383 623 373 613Q363 603 349 603Q335 603 325 613Z"  horiz-adv-x="500" vert-adv-y="1000"  />

      
      <glyph glyph-name="unia9" unicode="&#xa9;" d="M671 94.50Q671 94.50 618 41.25Q565-12 414-12Q263-12 158 93.50Q53 199 53 348L53 350Q53 499 159 605.50Q265 712 416 712Q567 712 672 606.50Q777 501 777 352L777 350Q777 201 671 94.50M178 113Q178 113 225.50 64.50Q273 16 414 16Q555 16 651 113.50Q747 211 747 350L747 352Q747 490 652 587Q557 684 416 684Q275 684 179 586.50Q83 489 83 350L83 348Q83 210 178 113M419 166Q342 166 289.50 221Q237 276 237 354L237 356Q237 433 290 489Q343 545 420 545Q492 545 549 495Q558 488 558 477Q558 468 551.50 462Q545 456 536 456Q529 456 520 463Q471 505 419 505Q360 505 320.50 461.50Q281 418 281 357L281 355Q281 294 321.50 250Q362 206 420 206Q477 206 526 250Q534 255 540 255Q548 255 554 249Q560 243 560 235Q560 225 553 220Q491 166 419 166Z"  horiz-adv-x="830" vert-adv-y="1000"  />

      
      <glyph glyph-name="uniae" unicode="&#xae;" d="M208 360Q135 360 84.50 411Q34 462 34 534L34 535Q34 607 85 658.50Q136 710 208 710Q281 710 331.50 659Q382 608 382 536L382 535Q382 463 331 411.50Q280 360 208 360M208 369Q277 369 324.50 417.50Q372 466 372 535L372 536Q372 605 325 653Q278 701 208 701Q139 701 91.50 652.50Q44 604 44 535L44 534Q44 465 91 417Q138 369 208 369M267 433Q271 425 279 425Q281 425 281 426Q284 426 284 430Q282 433 279 433Q276 433 273 437Q269 447 269 471Q269 502 239 519Q234 522 227 524Q247 530 259.50 546.50Q272 563 272 585Q272 611 254 629.50Q236 648 210 648L144 648L143 648Q139 648 139 644L139 426Q139 421 143 421Q148 421 148 426L148 522L209 522Q212 521 217 520Q235 515 244 505Q260 493 260 471Q260 445 267 433M210 531L148 531L148 639L210 639Q233 639 249 623.50Q265 608 265 585Q265 563 249 547Q233 531 210 531Z"  horiz-adv-x="416" vert-adv-y="1000"  />

      
      <glyph glyph-name="unib0" unicode="&#xb0;" d="M223 412Q160 412 117 455Q74 498 74 558L74 560Q74 625 118 665.50Q162 706 223 706Q283 706 327.50 663.50Q372 621 372 560L372 558Q372 498 329.50 455Q287 412 223 412M132.50 469Q132.50 469 150.75 450Q169 431 223 431Q277 431 313.50 469Q350 507 350 558L350 560Q350 611 313 649.50Q276 688 223 688Q170 688 133 649.50Q96 611 96 560L96 558Q96 507 132.50 469Z"  horiz-adv-x="450" vert-adv-y="1000"  />

      
      <glyph glyph-name="unib4" unicode="&#xb4;" d="M208 598Q201 594 201 601Q201 606 205 612L267 705Q279 723 295 723Q304 723 307.50 720.50Q311 718 312 713.50Q313 709 313 708Q316 703 303 690L232 613Q224 604 208 598Z"  horiz-adv-x="500" vert-adv-y="1000"  />

      
      <glyph glyph-name="unib8" unicode="&#xb8;" d="M295 10L230-122Q220-142 204-142Q192-142 181-134Q170-126 170-118Q170-112 175-103L252 10L295 10Z"  horiz-adv-x="500" vert-adv-y="1000"  />

      
      <glyph glyph-name="unibf" unicode="&#xbf;" d="M227 545Q227 557 239 557Q244 557 247.50 553.50Q251 550 251 545L251 423Q333 418 391.50 357Q450 296 450 212Q450 124 388 62Q326 0 239 0Q181 0 132 28.50Q83 57 56 106Q49 115 60 122Q69 127 76 118Q101 75 144 49.50Q187 24 239 24Q316 24 370.50 79Q425 134 425 212Q425 289 370 344Q315 399 239 399Q227 399 227 411L227 412L227 414L227 545M227 688Q227 700 239 700Q251 700 251 688L251 665Q251 660 247.50 656.50Q244 653 239 653Q227 653 227 665L227 688Z"  horiz-adv-x="534" vert-adv-y="1000"  />

      
      <glyph glyph-name="unic0" unicode="&#xc0;" d="M564 11Q569 2 577 2L578 2Q580 3 581 3Q593 9 588 20L336 692Q331 700 323 700Q313 702 310 692L58 20Q53 8 64 3Q65 3 67 2L69 2Q78 2 80 11L147 190L497 190L564 11M157 216L322 654L487 216L157 216M358 798Q342 804 334 813L263 890Q250 903 253 908Q253 909 254 913.50Q255 918 258.50 920.50Q262 923 271 923Q287 923 299 905L361 812Q365 806 365 801Q365 794 358 798Z"  horiz-adv-x="649" vert-adv-y="1000"  />

      
      <glyph glyph-name="unic1" unicode="&#xc1;" d="M564 11L497 190L147 190L80 11Q78 2 69 2L67 2Q65 3 64 3Q53 8 58 20L310 692Q313 702 323 700Q331 700 336 692L588 20Q593 9 581 3Q580 3 578 2L577 2Q569 2 564 11M322 654L157 216L487 216L322 654M295 798Q288 794 288 801Q288 806 292 812L354 905Q366 923 382 923Q391 923 394.50 920.50Q398 918 399 913.50Q400 909 400 908Q403 903 390 890L319 813Q311 804 295 798Z"  horiz-adv-x="646" vert-adv-y="1000"  />

      
      <glyph glyph-name="unic2" unicode="&#xc2;" d="M565 11Q570 2 578 2L580 2Q581 3 582 3Q594 9 589 20L337 692Q332 700 324 700Q314 702 311 692L59 20Q54 8 65 3Q66 3 68 2L70 2Q79 2 81 11L148 190L498 190L565 11M158 216L323 654L488 216L158 216M329 894L260 818Q242 800 235 800Q221 802 221 802Q221 808 226 814L298 902Q313 920 326 920L334 920Q347 920 362 902L434 814Q439 808 439 802Q439 798 433 799Q429 800 426 800Q418 800 399 819L329 894Z"  horiz-adv-x="664" vert-adv-y="1000"  />

      
      <glyph glyph-name="unic3" unicode="&#xc3;" d="M565 11Q570 2 578 2L580 2Q581 3 582 3Q594 9 589 20L337 692Q332 700 324 700Q314 702 311 692L59 20Q54 8 65 3Q66 3 68 2L70 2Q79 2 81 11L148 190L498 190L565 11M158 216L323 654L488 216L158 216M212 802Q206 790 196 790Q180 790 180 803Q180 805 184 817Q191 840 215 858.50Q239 877 260 877Q279 877 325 858Q371 839 388 839Q419 839 438 882Q438 883 440 888.50Q442 894 444.50 896.50Q447 899 451 899Q469 899 469 882Q469 876 467 870Q445 802 388 802Q370 802 324 821.50Q278 841 260 841Q229 841 212 802Z"  horiz-adv-x="664" vert-adv-y="1000"  />

      
      <glyph glyph-name="unic4" unicode="&#xc4;" d="M565 11Q570 2 578 2L580 2Q581 3 582 3Q594 9 589 20L337 692Q332 700 324 700Q314 702 311 692L59 20Q54 8 65 3Q66 3 68 2L70 2Q79 2 81 11L148 190L498 190L565 11M158 216L323 654L488 216L158 216M208 813Q208 813 203 818Q198 823 198 837Q198 851 208 861Q218 871 232 871Q246 871 255.50 861Q265 851 265 837Q265 823 255.50 813Q246 803 232 803Q218 803 208 813M390 813Q390 813 385 818Q380 823 380 837Q380 851 390 861Q400 871 414 871Q428 871 438 861Q448 851 448 837Q448 823 438 813Q428 803 414 803Q400 803 390 813Z"  horiz-adv-x="663" vert-adv-y="1000"  />

      
      <glyph glyph-name="unic5" unicode="&#xc5;" d="M576 19Q581 8 569 2Q568 2 566 2L565 1Q557 1 552 10L485 189L135 189L68 10Q66 1 57 1L55 2Q53 2 52 2Q41 7 46 19L287 663Q261 670 244.50 691.50Q228 713 228 740L228 741Q228 776 252 797.50Q276 819 309 819Q342 819 366 796.50Q390 774 390 741L390 740Q390 714 374.50 692.50Q359 671 334 664L576 19M252 739Q252 720 264 704Q276 688 295 684Q305 682 309 682Q318 682 326 685Q344 690 355 705.50Q366 721 366 739L366 740Q366 762 349.50 779.50Q333 797 309 797Q285 797 268.50 779.50Q252 762 252 740L252 739M145 215L475 215L310 653L145 215Z"  horiz-adv-x="646" vert-adv-y="1000"  />

      
      <glyph glyph-name="unic6" unicode="&#xc6;" d="M42 19Q58 52 441 684Q451 700 467 700L964 700Q988 700 988 686Q988 672 964 672L531 672L531 369L919 369Q943 369 943 353Q943 337 919 337L531 337L531 29L969 29Q993 29 993 15Q993 0 969 0L527 0Q516 0 508.50 8Q501 16 501 26L501 206L188 206L68 8Q61-3 49-1Q36 1 42 19M205 233L501 233L501 673L469 673L205 233Z"  horiz-adv-x="1045" vert-adv-y="1000"  />

      
      <glyph glyph-name="unic7" unicode="&#xc7;" d="M73 356Q73 502 179.50 606Q286 710 436 710Q563 710 663 633Q674 624 667 615Q656 604 648 613Q556 684 436 684Q297 684 198 588Q99 492 99 356Q99 219 198 122.50Q297 26 436 26Q555 26 647 97L647 97Q658 104 666 95Q674 87 663 77Q560 0 436 0Q286 1 179.50 105Q73 209 73 356M455 10L390-122Q380-142 364-142Q352-142 341-134Q330-126 330-118Q330-112 335-103L412 10L455 10Z"  horiz-adv-x="771" vert-adv-y="1000"  />

      
      <glyph glyph-name="unic8" unicode="&#xc8;" d="M119 0L118 0L116 0Q104 0 104 13L104 687Q104 698 116 700L117 700L118 700L489 700Q501 700 501 687Q501 675 489 675L129 675L129 363L446 363Q458 363 458 351Q458 338 446 338L129 338L129 25L489 25Q501 25 501 13Q501 0 489 0L119 0M327 798Q311 804 303 813L232 890Q219 903 222 908Q222 909 223 913.50Q224 918 227.50 920.50Q231 923 240 923Q256 923 268 905L330 812Q334 806 334 801Q334 794 327 798Z"  horiz-adv-x="593" vert-adv-y="1000"  />

      
      <glyph glyph-name="unic9" unicode="&#xc9;" d="M119 0L118 0L116 0Q104 0 104 13L104 687Q104 698 116 700L117 700L118 700L489 700Q501 700 501 687Q501 675 489 675L129 675L129 363L446 363Q458 363 458 351Q458 338 446 338L129 338L129 25L489 25Q501 25 501 13Q501 0 489 0L119 0M258 798Q251 794 251 801Q251 806 255 812L317 905Q329 923 345 923Q354 923 357.50 920.50Q361 918 362 913.50Q363 909 363 908Q366 903 353 890L282 813Q274 804 258 798Z"  horiz-adv-x="593" vert-adv-y="1000"  />

      
      <glyph glyph-name="unica" unicode="&#xca;" d="M119 0L118 0L116 0Q104 0 104 13L104 687Q104 698 116 700L117 700L118 700L489 700Q501 700 501 687Q501 675 489 675L129 675L129 363L446 363Q458 363 458 351Q458 338 446 338L129 338L129 25L489 25Q501 25 501 13Q501 0 489 0L119 0M302 894L233 818Q215 800 208 800Q194 802 194 802Q194 808 199 814L271 902Q286 920 299 920L307 920Q320 920 335 902L407 814Q412 808 412 802Q412 798 406 799Q402 800 399 800Q391 800 372 819L302 894Z"  horiz-adv-x="593" vert-adv-y="1000"  />

      
      <glyph glyph-name="unicb" unicode="&#xcb;" d="M118 0L119 0L489 0Q501 0 501 13Q501 25 489 25L129 25L129 338L446 338Q458 338 458 351Q458 363 446 363L129 363L129 675L489 675Q501 675 501 687Q501 700 489 700L118 700L117 700L116 700Q104 698 104 687L104 13Q104 0 116 0L118 0M186 813Q186 813 181 818Q176 823 176 837Q176 851 186 861Q196 871 210 871Q224 871 233.50 861Q243 851 243 837Q243 823 233.50 813Q224 803 210 803Q196 803 186 813M368 813Q368 813 363 818Q358 823 358 837Q358 851 368 861Q378 871 392 871Q406 871 416 861Q426 851 426 837Q426 823 416 813Q406 803 392 803Q378 803 368 813Z"  horiz-adv-x="670" vert-adv-y="1000"  />

      
      <glyph glyph-name="unicc" unicode="&#xcc;" d="M193 13Q193 0 206 0Q218 0 218 13L218 687Q218 700 206 700Q193 700 193 687L193 13M256 798Q240 804 232 813L161 890Q148 903 151 908Q151 909 152 913.50Q153 918 156.50 920.50Q160 923 169 923Q185 923 197 905L259 812Q263 806 263 801Q263 794 256 798Z"  horiz-adv-x="348" vert-adv-y="1000"  />

      
      <glyph glyph-name="unicd" unicode="&#xcd;" d="M128 13L128 687Q128 700 141 700Q153 700 153 687L153 13Q153 0 141 0Q128 0 128 13M90 798Q83 794 83 801Q83 806 87 812L149 905Q161 923 177 923Q186 923 189.50 920.50Q193 918 194 913.50Q195 909 195 908Q198 903 185 890L114 813Q106 804 90 798Z"  horiz-adv-x="274" vert-adv-y="1000"  />

      
      <glyph glyph-name="unice" unicode="&#xce;" d="M98 13Q98 0 111 0Q123 0 123 13L123 687Q123 700 111 700Q98 700 98 687L98 13M109 894L40 818Q22 800 15 800Q1 802 1 802Q1 808 6 814L78 902Q93 920 106 920L114 920Q127 920 142 902L214 814Q219 808 219 802Q214 799 206 800Q198 800 179 819L109 894Z"  horiz-adv-x="274" vert-adv-y="1000"  />

      
      <glyph glyph-name="unicf" unicode="&#xcf;" d="M105 13Q105 0 118 0Q130 0 130 13L130 687Q130 700 118 700Q105 700 105 687L105 13M2 813Q2 813-3 818Q-8 823-8 837Q-8 851 2 861Q12 871 26 871Q40 871 49.50 861Q59 851 59 837Q59 823 49.50 813Q40 803 26 803Q12 803 2 813M184 813Q184 813 179 818Q174 823 174 837Q174 851 184 861Q194 871 208 871Q222 871 232 861Q242 851 242 837Q242 823 232 813Q222 803 208 803Q194 803 184 813Z"  horiz-adv-x="274" vert-adv-y="1000"  />

      
      <glyph glyph-name="unid0" unicode="&#xd0;" d="M165 13L165 343L65 343Q55 343 55 352Q55 363 65 363L165 363L165 687Q165 700 178 700L312 700Q457 700 559.50 597.50Q662 495 662 351Q662 205 559.50 102.50Q457 0 312 0L178 0Q165 0 165 13M190 25L312 25Q447 27 541.50 121.50Q636 216 637 351Q636 485 541.50 580Q447 675 312 675L190 675L190 363L293 363Q302 363 302 352Q302 343 293 343L190 343L190 25Z"  horiz-adv-x="812" vert-adv-y="1000"  />

      
      <glyph glyph-name="unid1" unicode="&#xd1;" d="M589 9Q589 8 590 8Q593 0 602 0Q614 0 614 13L614 682Q614 695 602 695Q597 695 593 691Q589 687 589 682L589 52L127 694Q120 702 109 696Q104 691 104 685L104 682L104 13Q104 8 108 4Q112 0 117 0Q129 0 129 13L129 648L589 9M248 802Q242 790 232 790Q216 790 216 803Q216 805 220 817Q227 840 251 858.50Q275 877 296 877Q316 877 362 858Q408 839 424 839Q455 839 474 882Q474 883 476 888.50Q478 894 480.50 896.50Q483 899 487 899Q505 899 505 882Q505 876 503 870Q481 802 424 802Q406 802 360 821.50Q314 841 296 841Q265 841 248 802Z"  horiz-adv-x="790" vert-adv-y="1000"  />

      
      <glyph glyph-name="unid2" unicode="&#xd2;" d="M73 349Q74 499 173 604.50Q272 710 414 710Q555 710 654.50 604.50Q754 499 756 349Q754 198 655 92.50Q556-13 414-13Q272-13 173 92.50Q74 198 73 349M100 349Q100 211 192 113.50Q284 16 414 14Q543 16 635 113.50Q727 211 728 349Q727 488 635 586Q543 684 414 684Q285 684 192.50 586Q100 488 100 349M465 798Q449 804 441 813L370 890Q357 903 360 908Q360 909 361 913.50Q362 918 365.50 920.50Q369 923 378 923Q394 923 406 905L468 812Q472 806 472 801Q472 794 465 798Z"  horiz-adv-x="850" vert-adv-y="1000"  />

      
      <glyph glyph-name="unid3" unicode="&#xd3;" d="M73 349Q74 499 173 604.50Q272 710 414 710Q555 710 654.50 604.50Q754 499 756 349Q754 198 655 92.50Q556-13 414-13Q272-13 173 92.50Q74 198 73 349M100 349Q100 211 192 113.50Q284 16 414 14Q543 16 635 113.50Q727 211 728 349Q727 488 635 586Q543 684 414 684Q285 684 192.50 586Q100 488 100 349M365 798Q358 794 358 801Q358 806 362 812L424 905Q436 923 452 923Q461 923 464.50 920.50Q468 918 469 913.50Q470 909 470 908Q473 903 460 890L389 813Q381 804 365 798Z"  horiz-adv-x="850" vert-adv-y="1000"  />

      
      <glyph glyph-name="unid4" unicode="&#xd4;" d="M73 349Q74 499 173 604.50Q272 710 414 710Q555 710 654.50 604.50Q754 499 756 349Q754 198 655 92.50Q556-13 414-13Q272-13 173 92.50Q74 198 73 349M100 349Q100 211 192 113.50Q284 16 414 14Q543 16 635 113.50Q727 211 728 349Q727 488 635 586Q543 684 414 684Q285 684 192.50 586Q100 488 100 349M414 894L345 818Q327 800 320 800Q306 802 306 802Q306 808 311 814L383 902Q398 920 411 920L419 920Q432 920 447 902L519 814Q524 808 524 802Q524 798 518 799Q514 800 511 800Q503 800 484 819L414 894Z"  horiz-adv-x="850" vert-adv-y="1000"  />

      
      <glyph glyph-name="unid5" unicode="&#xd5;" d="M73 349Q74 198 173 92.50Q272-13 414-13Q556-13 655 92.50Q754 198 756 349Q754 499 654.50 604.50Q555 710 414 710Q272 710 173 604.50Q74 499 73 349M100 349Q100 488 192.50 586Q285 684 414 684Q543 684 635 586Q727 488 728 349Q727 211 635 113.50Q543 16 414 14Q284 16 192 113.50Q100 211 100 349M303 802Q297 790 287 790Q271 790 271 803Q271 805 275 817Q282 840 306 858.50Q330 877 351 877Q370 877 416 858Q462 839 479 839Q510 839 529 882Q529 883 531 888.50Q533 894 535.50 896.50Q538 899 542 899Q560 899 560 882Q560 876 558 870Q536 802 479 802Q461 802 415 821.50Q369 841 351 841Q320 841 303 802Z"  horiz-adv-x="850" vert-adv-y="1000"  />

      
      <glyph glyph-name="unid6" unicode="&#xd6;" d="M73 349Q74 198 173 92.50Q272-13 414-13Q556-13 655 92.50Q754 198 756 349Q754 499 654.50 604.50Q555 710 414 710Q272 710 173 604.50Q74 499 73 349M100 349Q100 488 192.50 586Q285 684 414 684Q543 684 635 586Q727 488 728 349Q727 211 635 113.50Q543 16 414 14Q284 16 192 113.50Q100 211 100 349M299 813Q299 813 294 818Q289 823 289 837Q289 851 299 861Q309 871 323 871Q337 871 346.50 861Q356 851 356 837Q356 823 346.50 813Q337 803 323 803Q309 803 299 813M481 813Q481 813 476 818Q471 823 471 837Q471 851 481 861Q491 871 505 871Q519 871 529 861Q539 851 539 837Q539 823 529 813Q519 803 505 803Q491 803 481 813Z"  horiz-adv-x="850" vert-adv-y="1000"  />

      
      <glyph glyph-name="unid7" unicode="&#xd7;" d="M512 520L343 353L511 187Q520 178 520 167Q520 156 513 149Q506 142 495 142Q484 142 475 151L309 319L142 150Q134 142 124 142Q114 142 107 149Q100 156 100 166Q100 176 108 184L277 351L109 517Q100 526 100 537Q100 548 107 555Q114 562 125 562Q136 562 145 553L311 385L478 554Q486 562 496 562Q506 562 513 555Q520 548 520 538Q520 528 512 520Z"  horiz-adv-x="620" vert-adv-y="1000"  />

      
      <glyph glyph-name="unid8" unicode="&#xd8;" d="M101 14Q92 21 101 32L705 658Q708 662 713.50 662.50Q719 663 723 659Q733 651 725 641L118 14Q113 8 105 11Q101 11 101 14M73 349Q74 499 173 604.50Q272 710 414 710Q555 710 654.50 604.50Q754 499 756 349Q754 198 655 92.50Q556-13 414-13Q272-13 173 92.50Q74 198 73 349M100 349Q100 211 192 113.50Q284 16 414 14Q543 16 635 113.50Q727 211 728 349Q727 488 635 586Q543 684 414 684Q285 684 192.50 586Q100 488 100 349Z"  horiz-adv-x="850" vert-adv-y="1000"  />

      
      <glyph glyph-name="unid9" unicode="&#xd9;" d="M93 281Q93 164 175 82Q257 0 373 0Q489 0 571.50 82Q654 164 654 281L654 687Q654 692 650 696Q646 700 641 700Q628 700 628 687L628 281Q627 175 552.50 101Q478 27 373 25Q267 27 192.50 101Q118 175 118 281L118 687Q118 700 106 700Q93 700 93 687L93 281M369 798Q353 804 345 813L274 890Q261 903 264 908Q264 909 265 913.50Q266 918 269.50 920.50Q273 923 282 923Q298 923 310 905L372 812Q376 806 376 801Q376 794 369 798Z"  horiz-adv-x="760" vert-adv-y="1000"  />

      
      <glyph glyph-name="unida" unicode="&#xda;" d="M93 281L93 687Q93 700 106 700Q118 700 118 687L118 281Q118 175 192.50 101Q267 27 373 25Q478 27 552.50 101Q627 175 628 281L628 687Q628 700 641 700Q646 700 650 696Q654 692 654 687L654 281Q654 164 571.50 82Q489 0 373 0Q257 0 175 82Q93 164 93 281M306 798Q299 794 299 801Q299 806 303 812L365 905Q377 923 393 923Q402 923 405.50 920.50Q409 918 410 913.50Q411 909 411 908Q414 903 401 890L330 813Q322 804 306 798Z"  horiz-adv-x="760" vert-adv-y="1000"  />

      
      <glyph glyph-name="unidb" unicode="&#xdb;" d="M93 281Q93 164 175 82Q257 0 373 0Q489 0 571.50 82Q654 164 654 281L654 687Q654 692 650 696Q646 700 641 700Q628 700 628 687L628 281Q627 175 552.50 101Q478 27 373 25Q267 27 192.50 101Q118 175 118 281L118 687Q118 700 106 700Q93 700 93 687L93 281M338 894L269 818Q251 800 244 800Q230 802 230 802Q230 808 235 814L307 902Q322 920 335 920L343 920Q356 920 371 902L443 814Q448 808 448 802Q448 798 442 799Q438 800 435 800Q427 800 408 819L338 894Z"  horiz-adv-x="760" vert-adv-y="1000"  />

      
      <glyph glyph-name="unidc" unicode="&#xdc;" d="M93 281Q93 164 175 82Q257 0 373 0Q489 0 571.50 82Q654 164 654 281L654 687Q654 692 650 696Q646 700 641 700Q628 700 628 687L628 281Q627 175 552.50 101Q478 27 373 25Q267 27 192.50 101Q118 175 118 281L118 687Q118 700 106 700Q93 700 93 687L93 281M258 813Q258 813 253 818Q248 823 248 837Q248 851 258 861Q268 871 282 871Q296 871 305.50 861Q315 851 315 837Q315 823 305.50 813Q296 803 282 803Q268 803 258 813M440 813Q440 813 435 818Q430 823 430 837Q430 851 440 861Q450 871 464 871Q478 871 488 861Q498 851 498 837Q498 823 488 813Q478 803 464 803Q450 803 440 813Z"  horiz-adv-x="760" vert-adv-y="1000"  />

      
      <glyph glyph-name="unidd" unicode="&#xdd;" d="M304 13L304 342L59 679Q49 689 62 696Q71 704 79 694L317 367L554 694Q563 703 572 696Q583 688 576 679L329 342L329 13Q329 0 317 0Q304 0 304 13M289 798Q282 794 282 801Q282 806 286 812L348 905Q360 923 376 923Q385 923 388.50 920.50Q392 918 393 913.50Q394 909 394 908Q397 903 384 890L313 813Q305 804 289 798Z"  horiz-adv-x="716" vert-adv-y="1000"  />

      
      <glyph glyph-name="unidf" unicode="&#xdf;" d="M286 14Q286 33 306 35Q398 40 460 80Q522 120 522 189Q522 252 461.50 289.50Q401 327 311 339Q286 342 286 363Q286 381 306 388Q481 449 481 562Q481 619 430 663.50Q379 708 313 708Q239 708 182.50 647Q126 586 126 500L126 20Q126-4 107-4Q102-4 99-2.50Q96-1 95 3.50Q94 8 94 10Q94 12 94 20L94 500Q94 606 155 673Q216 740 314 737Q403 734 458 685Q513 636 513 562L513 560Q513 493 461.50 444Q410 395 340 370Q431 354 495 309Q559 264 558 189Q557 106 486.50 54Q416 2 307-2Q286-2 286 14Z"  horiz-adv-x="620" vert-adv-y="1000"  />

      
      <glyph glyph-name="unie0" unicode="&#xe0;" d="M513 490Q525 490 525 477L525 13Q525 0 513 0Q500 0 500 13L500 135Q471 74 415.50 37Q360 0 294 0Q198 0 130.50 72Q63 144 63 245Q63 346 130.50 418Q198 490 294 490Q360 490 415.50 453Q471 416 500 355L500 477Q500 490 513 490M148.50 89.50Q148.50 89.50 178.75 57.25Q209 25 294 25Q379 25 439.50 89.50Q500 154 500 245Q500 336 439.50 400Q379 464 294 464Q209 464 148.50 400Q88 336 88 245Q88 154 148.50 89.50M345 573Q329 579 321 588L250 665Q237 678 240 683Q240 684 241 688.50Q242 693 245.50 695.50Q249 698 258 698Q274 698 286 680L348 587Q352 581 352 576Q352 570 345 573Z"  horiz-adv-x="574" vert-adv-y="1000"  />

      
      <glyph glyph-name="unie1" unicode="&#xe1;" d="M513 490Q525 490 525 477L525 13Q525 0 513 0Q500 0 500 13L500 135Q471 74 415.50 37Q360 0 294 0Q198 0 130.50 72Q63 144 63 245Q63 346 130.50 418Q198 490 294 490Q360 490 415.50 453Q471 416 500 355L500 477Q500 490 513 490M148.50 89.50Q148.50 89.50 178.75 57.25Q209 25 294 25Q379 25 439.50 89.50Q500 154 500 245Q500 336 439.50 400Q379 464 294 464Q209 464 148.50 400Q88 336 88 245Q88 154 148.50 89.50M245 573Q238 570 238 576Q238 581 242 587L304 680Q316 698 332 698Q341 698 344.50 695.50Q348 693 349 688.50Q350 684 350 683Q353 678 340 665L269 588Q261 579 245 573Z"  horiz-adv-x="574" vert-adv-y="1000"  />

      
      <glyph glyph-name="unie2" unicode="&#xe2;" d="M513 490Q525 490 525 477L525 13Q525 0 513 0Q500 0 500 13L500 135Q471 74 415.50 37Q360 0 294 0Q198 0 130.50 72Q63 144 63 245Q63 346 130.50 418Q198 490 294 490Q360 490 415.50 453Q471 416 500 355L500 477Q500 490 513 490M148.50 89.50Q148.50 89.50 178.75 57.25Q209 25 294 25Q379 25 439.50 89.50Q500 154 500 245Q500 336 439.50 400Q379 464 294 464Q209 464 148.50 400Q88 336 88 245Q88 154 148.50 89.50M321 667L252 591Q234 573 227 573Q213 575 213 575Q213 581 218 587L290 675Q305 693 318 693L326 693Q339 693 354 675L426 587Q431 581 431 575Q431 571 425 572Q421 573 418 573Q410 573 391 592L321 667Z"  horiz-adv-x="574" vert-adv-y="1000"  />

      
      <glyph glyph-name="unie3" unicode="&#xe3;" d="M513 490Q525 490 525 477L525 13Q525 0 513 0Q500 0 500 13L500 135Q471 74 415.50 37Q360 0 294 0Q198 0 130.50 72Q63 144 63 245Q63 346 130.50 418Q198 490 294 490Q360 490 415.50 453Q471 416 500 355L500 477Q500 490 513 490M148.50 89.50Q148.50 89.50 178.75 57.25Q209 25 294 25Q379 25 439.50 89.50Q500 154 500 245Q500 336 439.50 400Q379 464 294 464Q209 464 148.50 400Q88 336 88 245Q88 154 148.50 89.50M183 582Q177 570 167 570Q151 570 151 583Q151 585 155 597Q162 620 186 638.50Q210 657 231 657Q250 657 296 638Q342 619 359 619Q390 619 409 662Q409 663 411 668.50Q413 674 415.50 676.50Q418 679 422 679Q440 679 440 662Q440 656 438 650Q416 582 359 582Q341 582 295 601.50Q249 621 231 621Q200 621 183 582Z"  horiz-adv-x="574" vert-adv-y="1000"  />

      
      <glyph glyph-name="unie4" unicode="&#xe4;" d="M513 490Q525 490 525 477L525 13Q525 0 513 0Q500 0 500 13L500 135Q471 74 415.50 37Q360 0 294 0Q198 0 130.50 72Q63 144 63 245Q63 346 130.50 418Q198 490 294 490Q360 490 415.50 453Q471 416 500 355L500 477Q500 490 513 490M148.50 89.50Q148.50 89.50 178.75 57.25Q209 25 294 25Q379 25 439.50 89.50Q500 154 500 245Q500 336 439.50 400Q379 464 294 464Q209 464 148.50 400Q88 336 88 245Q88 154 148.50 89.50M179 589Q179 589 174 594Q169 599 169 613Q169 627 179 637Q189 647 203 647Q217 647 226.50 637Q236 627 236 613Q236 599 226.50 589Q217 579 203 579Q189 579 179 589M361 589Q361 589 356 594Q351 599 351 613Q351 627 361 637Q371 647 385 647Q399 647 409 637Q419 627 419 613Q419 599 409 589Q399 579 385 579Q371 579 361 589Z"  horiz-adv-x="574" vert-adv-y="1000"  />

      
      <glyph glyph-name="unie5" unicode="&#xe5;" d="M283 570Q249 570 225.50 593.50Q202 617 202 650L202 651Q202 686 226 707.50Q250 729 283 729Q316 729 340 706.50Q364 684 364 651L364 650Q364 617 341 593.50Q318 570 283 570M242.50 609.50Q242.50 609.50 250.75 600.75Q259 592 283 592Q307 592 323.50 609.50Q340 627 340 649L340 650Q340 672 323.50 689.50Q307 707 283 707Q259 707 242.50 689.50Q226 672 226 650L226 649Q226 627 242.50 609.50M501 490Q513 490 513 477L513 13Q513 0 501 0Q488 0 488 13L488 135Q459 74 403.50 37Q348 0 282 0Q186 0 118.50 72Q51 144 51 245Q51 346 118.50 418Q186 490 282 490Q348 490 403.50 453Q459 416 488 355L488 477Q488 490 501 490M136.50 89.50Q136.50 89.50 166.75 57.25Q197 25 282 25Q367 25 427.50 89.50Q488 154 488 245Q488 336 427.50 400Q367 464 282 464Q197 464 136.50 400Q76 336 76 245Q76 154 136.50 89.50Z"  horiz-adv-x="574" vert-adv-y="1000"  />

      
      <glyph glyph-name="unie6" unicode="&#xe6;" d="M732 489Q825 489 892.50 424Q960 359 967 263L967 262L967 260L967 259Q965 247 955 247L520 247L520 244Q520 155 582 90.50Q644 26 732 25Q787 25 833.50 52Q880 79 908 125Q914 133 926 128Q936 122 929 111Q897 61 844.50 30.50Q792 0 732 0Q660 1 601 43Q542 85 514 151L514 13Q514 0 502 0Q489 0 489 13L489 135Q460 74 404.50 37Q349 0 282 0Q186 0 118.50 72Q51 144 51 245Q51 346 118.50 418.50Q186 491 282 491Q349 491 404.50 454Q460 417 489 356L489 478Q489 491 502 491Q514 491 514 478L514 338Q541 406 600 447.50Q659 489 732 489M282 25Q368 25 428.50 89.50Q489 154 489 245Q489 336 428.50 400.50Q368 465 282 465Q197 465 136.50 400.50Q76 336 76 245Q76 154 136.50 89.50Q197 25 282 25M521 271L942 271Q932 353 872 408Q812 463 732 463Q651 463 591 408Q531 353 521 271Z"  horiz-adv-x="954" vert-adv-y="1000"  />

      
      <glyph glyph-name="unie7" unicode="&#xe7;" d="M132 72.50Q132 72.50 95 108.25Q58 144 58 245Q58 346 132 418Q206 490 310 490Q399 490 466 437Q474 429 467 418Q461 410 450 417Q388 465 310 465Q215 465 149 400.50Q83 336 83 245Q83 154 149 89.50Q215 25 310 25Q386 25 450 74Q460 80 467 71Q474 61 466 53Q397 0 310 0Q206 1 132 72.50M336 10L271-122Q261-142 245-142Q233-142 222-134Q211-126 211-118Q211-112 216-103L293 10L336 10Z"  horiz-adv-x="571" vert-adv-y="1000"  />

      
      <glyph glyph-name="unie8" unicode="&#xe8;" d="M296 0Q198 1 129 72.50Q60 144 58 245Q60 347 129 418.50Q198 490 296 490Q389 490 456.50 425Q524 360 531 264L531 263L531 261L531 260Q529 248 519 248L83 248L83 245Q83 155 145.50 90.50Q208 26 296 25Q351 25 397.50 52Q444 79 472 125Q478 133 490 128Q500 122 493 111Q461 61 408.50 30.50Q356 0 296 0M296 464Q215 464 154.50 409Q94 354 84 272L506 272Q496 354 436 409Q376 464 296 464M345 573Q329 579 321 588L250 665Q237 678 240 683Q240 684 241 688.50Q242 693 245.50 695.50Q249 698 258 698Q274 698 286 680L348 587Q352 581 352 576Q352 569 345 573Z"  horiz-adv-x="609" vert-adv-y="1000"  />

      
      <glyph glyph-name="unie9" unicode="&#xe9;" d="M296 0Q198 1 129 72.50Q60 144 58 245Q60 347 129 418.50Q198 490 296 490Q389 490 456.50 425Q524 360 531 264L531 263L531 261L531 260Q529 248 519 248L83 248L83 245Q83 155 145.50 90.50Q208 26 296 25Q351 25 397.50 52Q444 79 472 125Q478 133 490 128Q500 122 493 111Q461 61 408.50 30.50Q356 0 296 0M296 464Q215 464 154.50 409Q94 354 84 272L506 272Q496 354 436 409Q376 464 296 464M244 573Q237 570 237 576Q237 581 241 587L303 680Q315 698 331 698Q340 698 343.50 695.50Q347 693 348 688.50Q349 684 349 683Q352 678 339 665L268 588Q260 579 244 573Z"  horiz-adv-x="609" vert-adv-y="1000"  />

      
      <glyph glyph-name="uniea" unicode="&#xea;" d="M296 0Q198 1 129 72.50Q60 144 58 245Q60 347 129 418.50Q198 490 296 490Q389 490 456.50 425Q524 360 531 264L531 263L531 261L531 260Q529 248 519 248L83 248L83 245Q83 155 145.50 90.50Q208 26 296 25Q351 25 397.50 52Q444 79 472 125Q478 133 490 128Q500 122 493 111Q461 61 408.50 30.50Q356 0 296 0M296 464Q215 464 154.50 409Q94 354 84 272L506 272Q496 354 436 409Q376 464 296 464M294 667L225 591Q207 573 200 573Q186 575 186 575Q186 581 191 587L263 675Q278 693 291 693L299 693Q312 693 327 675L399 587Q404 581 404 575Q404 571 398 572Q394 573 391 573Q383 573 364 592L294 667Z"  horiz-adv-x="609" vert-adv-y="1000"  />

      
      <glyph glyph-name="unieb" unicode="&#xeb;" d="M299 0Q359 0 411.50 30.50Q464 61 496 111Q503 122 493 128Q481 133 475 125Q447 79 400.50 52Q354 25 299 25Q211 26 148.50 90.50Q86 155 86 245L86 248L522 248Q532 248 534 260L534 261L534 263L534 264Q527 360 459.50 425Q392 490 299 490Q201 490 132 418.50Q63 347 61 245Q63 144 132 72.50Q201 1 299 0M299 464Q379 464 439 409Q499 354 509 272L87 272Q97 354 157.50 409Q218 464 299 464M182 580Q182 580 177 585Q172 590 172 604Q172 618 182 628Q192 638 206 638Q220 638 229.50 628Q239 618 239 604Q239 590 229.50 580Q220 570 206 570Q192 570 182 580M364 580Q364 580 359 585Q354 590 354 604Q354 618 364 628Q374 638 388 638Q402 638 412 628Q422 618 422 604Q422 590 412 580Q402 570 388 570Q374 570 364 580Z"  horiz-adv-x="584" vert-adv-y="1000"  />

      
      <glyph glyph-name="uniec" unicode="&#xec;" d="M95 13Q95 0 108 0Q113 0 116.50 4Q120 8 120 13L120 478Q120 490 108 490Q95 490 95 478L95 13M158 573Q142 579 134 588L63 665Q50 678 53 683Q53 684 54 688.50Q55 693 58.50 695.50Q62 698 71 698Q87 698 99 680L161 587Q165 581 165 576Q165 570 158 573Z"  horiz-adv-x="281" vert-adv-y="1000"  />

      
      <glyph glyph-name="unied" unicode="&#xed;" d="M95 13L95 478Q95 490 108 490Q120 490 120 478L120 13Q120 8 116.50 4Q113 0 108 0Q95 0 95 13M57 573Q50 570 50 576Q50 581 54 587L116 680Q128 698 144 698Q153 698 156.50 695.50Q160 693 161 688.50Q162 684 162 683Q165 678 152 665L81 588Q73 579 57 573Z"  horiz-adv-x="281" vert-adv-y="1000"  />

      
      <glyph glyph-name="uniee" unicode="&#xee;" d="M106 13Q106 0 119 0Q124 0 127.50 4Q131 8 131 13L131 478Q131 490 119 490Q106 490 106 478L106 13M117 667L48 591Q30 573 23 573Q9 575 9 575Q9 581 14 587L86 675Q101 693 114 693L122 693Q135 693 150 675L222 587Q227 581 227 575Q222 572 214 573Q206 573 187 592L117 667Z"  horiz-adv-x="281" vert-adv-y="1000"  />

      
      <glyph glyph-name="unief" unicode="&#xef;" d="M107 13Q107 0 120 0Q125 0 128.50 4Q132 8 132 13L132 478Q132 490 120 490Q107 490 107 478L107 13M4 580Q4 580-1 585Q-6 590-6 604Q-6 618 4 628Q14 638 28 638Q42 638 51.50 628Q61 618 61 604Q61 590 51.50 580Q42 570 28 570Q14 570 4 580M186 580Q186 580 181 585Q176 590 176 604Q176 618 186 628Q196 638 210 638Q224 638 234 628Q244 618 244 604Q244 590 234 580Q224 570 210 570Q196 570 186 580Z"  horiz-adv-x="281" vert-adv-y="1000"  />

      
      <glyph glyph-name="unif1" unicode="&#xf1;" d="M464 13Q464 0 476 0Q489 0 489 13L489 292Q489 374 431 432Q373 490 292 490Q237 490 191 462Q145 434 119 388L119 478Q119 490 107 490Q94 490 94 478L94 300L94 292L94 13L94 11Q94 8 96 6Q96 5 97 4Q99 2 100 2L101 1Q102 0 103 0L105 0L107 0Q113 0 116 5Q119 8 119 13L119 292Q119 364 170 414.50Q221 465 292 465Q363 465 413.50 414.50Q464 364 464 292L464 13M179 582Q173 570 163 570Q147 570 147 583Q147 585 151 597Q158 620 182 638.50Q206 657 227 657Q246 657 292 638Q338 619 355 619Q386 619 405 662Q405 663 407 668.50Q409 674 411.50 676.50Q414 679 418 679Q436 679 436 662Q436 656 434 650Q412 582 355 582Q337 582 291 601.50Q245 621 227 621Q196 621 179 582Z"  horiz-adv-x="613" vert-adv-y="1000"  />

      
      <glyph glyph-name="unif2" unicode="&#xf2;" d="M125.50 418Q125.50 418 91.75 382Q58 346 58 245Q58 144 125.50 72Q193 0 289 0Q385 0 453 72Q521 144 521 245Q521 346 453 418Q385 490 289 490Q193 490 125.50 418M143.50 89.50Q143.50 89.50 113.25 121.75Q83 154 83 245Q83 336 143.50 400.50Q204 465 289 465Q374 465 435 400.50Q496 336 496 245Q496 154 435 89.50Q374 25 289 25Q204 25 143.50 89.50M340 573Q324 579 316 588L245 665Q232 678 235 683Q235 684 236 688.50Q237 693 240.50 695.50Q244 698 253 698Q269 698 281 680L343 587Q347 581 347 576Q347 570 340 573Z"  horiz-adv-x="640" vert-adv-y="1000"  />

      
      <glyph glyph-name="unif3" unicode="&#xf3;" d="M125.50 72Q125.50 72 91.75 108Q58 144 58 245Q58 346 125.50 418Q193 490 289 490Q385 490 453 418Q521 346 521 245Q521 144 453 72Q385 0 289 0Q193 0 125.50 72M143.50 400.50Q143.50 400.50 113.25 368.25Q83 336 83 245Q83 154 143.50 89.50Q204 25 289 25Q374 25 435 89.50Q496 154 496 245Q496 336 435 400.50Q374 465 289 465Q204 465 143.50 400.50M238 573Q231 570 231 576Q231 581 235 587L297 680Q309 698 325 698Q334 698 337.50 695.50Q341 693 342 688.50Q343 684 343 683Q346 678 333 665L262 588Q254 579 238 573Z"  horiz-adv-x="640" vert-adv-y="1000"  />

      
      <glyph glyph-name="unif4" unicode="&#xf4;" d="M125.50 418Q125.50 418 91.75 382Q58 346 58 245Q58 144 125.50 72Q193 0 289 0Q385 0 453 72Q521 144 521 245Q521 346 453 418Q385 490 289 490Q193 490 125.50 418M143.50 89.50Q143.50 89.50 113.25 121.75Q83 154 83 245Q83 336 143.50 400.50Q204 465 289 465Q374 465 435 400.50Q496 336 496 245Q496 154 435 89.50Q374 25 289 25Q204 25 143.50 89.50M287 667L218 591Q200 573 193 573Q179 575 179 575Q179 581 184 587L256 675Q271 693 284 693L292 693Q305 693 320 675L392 587Q397 581 397 575Q397 571 391 572Q387 573 384 573Q376 573 357 592L287 667Z"  horiz-adv-x="640" vert-adv-y="1000"  />

      
      <glyph glyph-name="unif5" unicode="&#xf5;" d="M125.50 418Q125.50 418 91.75 382Q58 346 58 245Q58 144 125.50 72Q193 0 289 0Q385 0 453 72Q521 144 521 245Q521 346 453 418Q385 490 289 490Q193 490 125.50 418M143.50 89.50Q143.50 89.50 113.25 121.75Q83 154 83 245Q83 336 143.50 400.50Q204 465 289 465Q374 465 435 400.50Q496 336 496 245Q496 154 435 89.50Q374 25 289 25Q204 25 143.50 89.50M177 582Q171 570 161 570Q145 570 145 583Q145 585 149 597Q156 620 180 638.50Q204 657 225 657Q244 657 290.50 638Q337 619 353 619Q384 619 403 662Q403 663 405 668.50Q407 674 409.50 676.50Q412 679 416 679Q434 679 434 662Q434 656 432 650Q410 582 353 582Q335 582 289 601.50Q243 621 225 621Q194 621 177 582Z"  horiz-adv-x="640" vert-adv-y="1000"  />

      
      <glyph glyph-name="unif6" unicode="&#xf6;" d="M125.50 418Q125.50 418 91.75 382Q58 346 58 245Q58 144 125.50 72Q193 0 289 0Q385 0 453 72Q521 144 521 245Q521 346 453 418Q385 490 289 490Q193 490 125.50 418M143.50 89.50Q143.50 89.50 113.25 121.75Q83 154 83 245Q83 336 143.50 400.50Q204 465 289 465Q374 465 435 400.50Q496 336 496 245Q496 154 435 89.50Q374 25 289 25Q204 25 143.50 89.50M174 580Q174 580 169 585Q164 590 164 604Q164 618 174 628Q184 638 198 638Q212 638 221.50 628Q231 618 231 604Q231 590 221.50 580Q212 570 198 570Q184 570 174 580M356 580Q356 580 351 585Q346 590 346 604Q346 618 356 628Q366 638 380 638Q394 638 404 628Q414 618 414 604Q414 590 404 580Q394 570 380 570Q366 570 356 580Z"  horiz-adv-x="640" vert-adv-y="1000"  />

      
      <glyph glyph-name="unif7" unicode="&#xf7;" d="M88 328L532 328Q542 328 549 335Q556 342 556 352Q556 362 549 369Q542 376 532 376L88 376Q78 376 71 369Q64 362 64 352Q64 342 71 335Q78 328 88 328M287.50 514.50Q287.50 514.50 280.75 521.25Q274 528 274 547Q274 566 287.50 579.50Q301 593 320 593Q339 593 352.50 579.50Q366 566 366 547Q366 528 352.50 514.50Q339 501 320 501Q301 501 287.50 514.50M287.50 125.50Q287.50 125.50 280.75 132.25Q274 139 274 158Q274 177 287.50 190.50Q301 204 320 204Q339 204 352.50 190.50Q366 177 366 158Q366 139 352.50 125.50Q339 112 320 112Q301 112 287.50 125.50Z"  horiz-adv-x="620" vert-adv-y="1000"  />

      
      <glyph glyph-name="unif8" unicode="&#xf8;" d="M80-11Q71-2 81 8L500 469Q503 472 508 472.50Q513 473 517 469Q527 461 519 452L97-10Q94-17 84-13L82-12L80-11M125.50 72Q125.50 72 91.75 108Q58 144 58 245Q58 346 125.50 418Q193 490 289 490Q385 490 453 418Q521 346 521 245Q521 144 453 72Q385 0 289 0Q193 0 125.50 72M143.50 400.50Q143.50 400.50 113.25 368.25Q83 336 83 245Q83 154 143.50 89.50Q204 25 289 25Q374 25 435 89.50Q496 154 496 245Q496 336 435 400.50Q374 465 289 465Q204 465 143.50 400.50Z"  horiz-adv-x="640" vert-adv-y="1000"  />

      
      <glyph glyph-name="unif9" unicode="&#xf9;" d="M83 198L83 477Q83 490 96 490Q101 490 104.50 486Q108 482 108 477L108 198Q108 126 158 75.50Q208 25 279 25Q350 25 400.50 75.50Q451 126 451 198L451 477Q451 482 455 486Q459 490 464 490Q477 490 477 477L477 198Q477 116 419 58Q361 0 279 0Q198 0 140.50 58Q83 116 83 198M298 573Q282 579 274 588L203 665Q190 678 193 683Q193 684 194 688.50Q195 693 198.50 695.50Q202 698 211 698Q227 698 239 680L301 587Q305 581 305 576Q305 569 298 573Z"  horiz-adv-x="613" vert-adv-y="1000"  />

      
      <glyph glyph-name="unifa" unicode="&#xfa;" d="M83 198L83 477Q83 490 96 490Q101 490 104.50 486Q108 482 108 477L108 198Q108 126 158 75.50Q208 25 279 25Q350 25 400.50 75.50Q451 126 451 198L451 477Q451 482 455 486Q459 490 464 490Q477 490 477 477L477 198Q477 116 419 58Q361 0 279 0Q198 0 140.50 58Q83 116 83 198M235 573Q228 570 228 576Q228 581 232 587L294 680Q306 698 322 698Q331 698 334.50 695.50Q338 693 339 688.50Q340 684 340 683Q343 678 330 665L259 588Q251 579 235 573Z"  horiz-adv-x="613" vert-adv-y="1000"  />

      
      <glyph glyph-name="unifb" unicode="&#xfb;" d="M83 198L83 477Q83 490 96 490Q101 490 104.50 486Q108 482 108 477L108 198Q108 126 158 75.50Q208 25 279 25Q350 25 400.50 75.50Q451 126 451 198L451 477Q451 482 455 486Q459 490 464 490Q477 490 477 477L477 198Q477 116 419 58Q361 0 279 0Q198 0 140.50 58Q83 116 83 198M267 667L198 591Q180 573 173 573Q159 575 159 575Q159 581 164 587L236 675Q251 693 264 693L272 693Q285 693 300 675L372 587Q377 581 377 575Q377 571 371 572Q367 573 364 573Q356 573 337 592L267 667Z"  horiz-adv-x="613" vert-adv-y="1000"  />

      
      <glyph glyph-name="unifc" unicode="&#xfc;" d="M83 198Q83 116 140.50 58Q198 0 279 0Q361 0 419 58Q477 116 477 198L477 477Q477 490 464 490Q459 490 455 486Q451 482 451 477L451 198Q451 126 400.50 75.50Q350 25 279 25Q208 25 158 75.50Q108 126 108 198L108 477Q108 482 104.50 486Q101 490 96 490Q83 490 83 477L83 198M166 580Q166 580 161 585Q156 590 156 604Q156 618 166 628Q176 638 190 638Q204 638 213.50 628Q223 618 223 604Q223 590 213.50 580Q204 570 190 570Q176 570 166 580M348 580Q348 580 343 585Q338 590 338 604Q338 618 348 628Q358 638 372 638Q386 638 396 628Q406 618 406 604Q406 590 396 580Q386 570 372 570Q358 570 348 580Z"  horiz-adv-x="613" vert-adv-y="1000"  />

      
      <glyph glyph-name="unifd" unicode="&#xfd;" d="M52 198L52 477Q52 490 65 490Q70 490 73.50 486Q77 482 77 477L77 198Q77 127 127.50 77Q178 27 249 27Q317 27 366 75Q415 123 418 191L418 477L418 479Q418 480 420 484Q420 485 421 485L424 488Q428 490 431 490L433 490Q434 490 434 490L436 489L439 486L440 485Q443 482 443 477L443 28Q443-67 376-134.50Q309-202 213-202Q161-202 113-178Q101-173 108-161Q112-150 123-155Q167-177 213-177Q298-177 358-117Q418-57 418 28L418 102Q394 56 348.50 29Q303 2 249 2Q167 2 109.50 59.50Q52 117 52 198M236 573Q229 569 229 576Q229 581 233 587L295 680Q307 698 323 698Q332 698 335.50 695.50Q339 693 340 688.50Q341 684 341 683Q344 678 331 665L260 588Q252 579 236 573Z"  horiz-adv-x="588" vert-adv-y="1000"  />

      
      <glyph glyph-name="uniff" unicode="&#xff;" d="M52 198L52 477Q52 490 65 490Q70 490 73.50 486Q77 482 77 477L77 198Q77 127 127.50 77Q178 27 249 27Q317 27 366 75Q415 123 418 191L418 477L418 479Q418 480 420 484Q420 485 421 485L424 488Q428 490 431 490L433 490Q434 490 434 490L436 489L439 486L440 485Q443 482 443 477L443 28Q443-67 376-134.50Q309-202 213-202Q161-202 113-178Q101-173 108-161Q112-150 123-155Q167-177 213-177Q298-177 358-117Q418-57 418 28L418 102Q394 56 348.50 29Q303 2 249 2Q167 2 109.50 59.50Q52 117 52 198M131 580Q131 580 126 585Q121 590 121 604Q121 618 131 628Q141 638 155 638Q169 638 178.50 628Q188 618 188 604Q188 590 178.50 580Q169 570 155 570Q141 570 131 580M313 580Q313 580 308 585Q303 590 303 604Q303 618 313 628Q323 638 337 638Q351 638 361 628Q371 618 371 604Q371 590 361 580Q351 570 337 570Q323 570 313 580Z"  horiz-adv-x="588" vert-adv-y="1000"  />

      
      <glyph glyph-name="uni0152" unicode="&#x0152;" d="M1121 0L748 0Q736 0 736 13L736 228Q699 121 611.50 54Q524-13 414-13Q272-13 173 92.50Q74 198 73 349Q74 499 173 604.50Q272 710 414 710Q524 710 611.50 643Q699 576 736 469L736 687Q736 698 748 700L1121 700Q1133 700 1133 687Q1133 675 1121 675L761 675L761 363L1078 363Q1090 363 1090 351Q1090 338 1078 338L761 338L761 25L1121 25Q1133 25 1133 13Q1133 0 1121 0M100 349Q100 211 192 113.50Q284 16 414 14Q543 16 635 113.50Q727 211 728 349Q727 488 635 586Q543 684 414 684Q285 684 192.50 586Q100 488 100 349Z"  horiz-adv-x="1443" vert-adv-y="1000"  />

      
      <glyph glyph-name="uni0153" unicode="&#x0153;" d="M737 0Q659 1 596.50 50Q534 99 511 174Q489 98 427.50 49Q366 0 289 0Q193 0 125.50 72Q58 144 58 245Q58 346 125.50 418Q193 490 289 490Q366 490 427.50 441Q489 392 511 316Q534 392 596 440.50Q658 489 737 489Q830 489 897.50 424Q965 359 972 263L972 259Q970 247 960 247L525 247L525 244Q525 155 587 90.50Q649 26 737 25Q792 25 838.50 52Q885 79 913 125Q919 133 931 128Q941 122 934 111Q902 61 849.50 30.50Q797 0 737 0M143.50 400.50Q143.50 400.50 113.25 368.25Q83 336 83 245Q83 154 143.50 89.50Q204 25 289 25Q374 25 435 89.50Q496 154 496 245Q496 336 435 400.50Q374 465 289 465Q204 465 143.50 400.50M737 463Q656 463 596 408Q536 353 526 271L947 271Q937 353 877 408Q817 463 737 463Z"  horiz-adv-x="1055" vert-adv-y="1000"  />

      
      <glyph glyph-name="uni0160" unicode="&#x0160;" d="M268 869L337 793L407 868Q426 887 434 887Q447 885 447 885Q447 879 442 873L370 785Q355 767 342 767L334 767Q321 767 306 785L234 873Q229 879 229 885Q229 887 230.50 887.50Q232 888 236.50 887.50Q241 887 243 887Q250 887 268 869M326-5Q285-5 243 5.50Q201 16 172 29.50Q143 43 117 59Q91 75 80.50 83.50Q70 92 66 96Q56 106 65 114Q74 124 83 115Q91 107 115.50 89Q140 71 202.50 45.50Q265 20 326 20Q427 20 496.50 70Q566 120 566 193Q566 220 558.50 241.50Q551 263 533 279Q515 295 499 305.50Q483 316 452.50 326Q422 336 402.50 341Q383 346 346 355Q307 364 287 369.50Q267 375 234 386Q201 397 183.50 409Q166 421 146.50 439Q127 457 118.50 482Q110 507 110 538Q110 606 173.50 655Q237 704 327 704Q366 704 402 695.50Q438 687 461 675.50Q484 664 503.50 650.50Q523 637 530.50 629.50Q538 622 540 619Q548 610 539 601Q528 594 521 602Q445 678 327 678Q248 678 192 637Q136 596 136 538Q136 507 149 483Q162 459 178.50 444Q195 429 229 415.50Q263 402 285.50 396Q308 390 352 380Q391 371 411.50 365.50Q432 360 465.50 349Q499 338 517 325.50Q535 313 554.50 294.50Q574 276 582.50 250.50Q591 225 591 193Q591 110 514.50 52.50Q438-5 326-5Z"  horiz-adv-x="640" vert-adv-y="1000"  />

      
      <glyph glyph-name="uni0161" unicode="&#x0161;" d="M180 644L249 568L319 643Q338 662 346 662Q359 660 359 660Q359 654 354 648L282 560Q267 542 254 542L246 542Q233 542 218 560L146 648Q141 654 141 660Q141 662 142.50 662.50Q144 663 148.50 662.50Q153 662 155 662Q162 662 180 644M251 0Q205 0 158 18.50Q111 37 92.50 50.50Q74 64 67 71Q58 80 66 89Q76 98 84 90Q90 84 106.50 72Q123 60 166 42.50Q209 25 251 25Q318 25 365.50 59Q413 93 413 141Q413 159 408 173.50Q403 188 390.50 199Q378 210 367.50 217Q357 224 335 231Q313 238 301.50 241Q290 244 263 250Q230 258 214.50 262Q199 266 171.50 277.50Q144 289 131 301Q118 313 107 334Q96 355 96 381Q96 430 141.50 465Q187 500 251 500Q295 500 333 484.50Q371 469 384.50 457.50Q398 446 402 440Q410 432 401 422Q391 413 383 423Q332 474 251 474Q198 474 160 447Q122 420 122 381Q122 356 132.50 338Q143 320 167.50 308Q192 296 211 290Q230 284 269 275Q301 268 318.50 263Q336 258 362.50 247.50Q389 237 403 224Q417 211 428 189.50Q439 168 439 141Q439 82 384.50 41Q330 0 251 0Z"  horiz-adv-x="497" vert-adv-y="1000"  />

      
      <glyph glyph-name="uni0178" unicode="&#x0178;" d="M206 753Q206 753 201 758Q196 763 196 777Q196 791 206 801Q216 811 230 811Q244 811 254 801Q264 791 264 777Q264 763 254 753Q244 743 230 743Q216 743 206 753M387 753Q387 753 382 758Q377 763 377 777Q377 791 387 801Q397 811 411 811Q425 811 435 801Q445 791 445 777Q445 763 435 753Q425 743 411 743Q397 743 387 753M304 13Q304 0 317 0Q329 0 329 13L329 342L576 679Q583 688 572 696Q563 703 554 694L317 367L79 694Q71 704 62 696Q49 689 59 679L304 342L304 13Z"  horiz-adv-x="716" vert-adv-y="1000"  />

      
      <glyph glyph-name="uni0192" unicode="&#x0192;" d="M94-1Q56-1 56 16Q56 20 57.50 23Q59 26 63 27.50Q67 29 70 29.50Q73 30 80.50 30.50Q88 31 91 31Q128 35 144.50 55.50Q161 76 169 121L218 393L128 393Q105 393 105 406Q105 420 128 420L226 420L252 565Q266 639 300.50 672Q335 705 395 705Q430 705 454 699Q474 694 474 681Q474 678 473.50 676.50Q473 675 471.50 674Q470 673 469 672Q468 671 465.50 671Q463 671 461.50 671Q460 671 457 671Q454 671 452 671Q467 671 451 673L400 677Q356 683 325.50 650.50Q295 618 285 562L260 420L396 420Q419 420 419 406Q419 393 396 393L252 393L202 118Q189 55 164 27Q139-1 94-1Z"  horiz-adv-x="506" vert-adv-y="1000"  />

      
      <glyph glyph-name="uni02C6" unicode="&#x02C6;" d="M249 694L180 618Q162 600 155 600Q141 602 141 602Q141 608 146 614L218 702Q233 720 246 720L254 720Q267 720 282 702L354 614Q359 608 359 602Q359 598 353 599Q349 600 346 600Q338 600 319 619L249 694Z"  horiz-adv-x="500" vert-adv-y="1000"  />

      
      <glyph glyph-name="uni02DC" unicode="&#x02DC;" d="M137 602Q131 590 121 590Q105 590 105 603Q105 605 109 617Q116 640 140 658.50Q164 677 185 677Q204 677 250 658Q296 639 313 639Q344 639 363 682Q363 683 365 688.50Q367 694 369.50 696.50Q372 699 376 699Q394 699 394 682Q394 676 392 670Q370 602 313 602Q295 602 249 621.50Q203 641 185 641Q154 641 137 602Z"  horiz-adv-x="500" vert-adv-y="1000"  />

      
      <glyph glyph-name="uni2013" unicode="&#x2013;" d="M92 280Q79 279 72.50 284.50Q66 290 66 297Q66 317 92 317L436 317Q462 317 462 297Q462 280 436 280L92 280Z"  horiz-adv-x="528" vert-adv-y="1000"  />

      
      <glyph glyph-name="uni2014" unicode="&#x2014;" d="M92 280Q79 279 72.50 284.50Q66 290 66 297Q66 317 92 317L521 317Q547 317 547 297Q547 280 521 280L92 280Z"  horiz-adv-x="898" vert-adv-y="1000"  />

      
      <glyph glyph-name="uni2018" unicode="&#x2018;" d="M171 688Q171 680 163 675Q112 647 116 598Q143 591 143 563L143 542Q143 528 133.50 518.50Q124 509 110 509Q96 509 86.50 518.50Q77 528 77 542L77 567Q77 644 104 671Q136 703 156 703Q171 703 171 688Z"  horiz-adv-x="230" vert-adv-y="1000"  />

      
      <glyph glyph-name="uni2019" unicode="&#x2019;" d="M59 525Q59 533 67 538Q118 566 114 615Q87 622 87 650L87 671Q87 684 96.50 694Q106 704 120 704Q134 704 143.50 694Q153 684 153 671L153 646Q153 569 126 542Q94 510 74 510Q59 510 59 525Z"  horiz-adv-x="230" vert-adv-y="1000"  />

      
      <glyph glyph-name="uni201C" unicode="&#x201C;" d="M351 688Q351 680 343 675Q292 647 296 598Q323 591 323 563L323 542Q323 528 313.50 518.50Q304 509 290 509Q276 509 266.50 518.50Q257 528 257 542L257 567Q257 644 284 671Q316 703 336 703Q351 703 351 688M171 688Q171 680 163 675Q112 647 116 598Q143 591 143 563L143 542Q143 528 133.50 518.50Q124 509 110 509Q96 509 86.50 518.50Q77 528 77 542L77 567Q77 644 104 671Q136 703 156 703Q171 703 171 688Z"  horiz-adv-x="410" vert-adv-y="1000"  />

      
      <glyph glyph-name="uni201D" unicode="&#x201D;" d="M59 525Q59 533 67 538Q118 566 114 615Q87 622 87 650L87 671Q87 684 96.50 694Q106 704 120 704Q134 704 143.50 694Q153 684 153 671L153 646Q153 569 126 542Q94 510 74 510Q59 510 59 525M239 525Q239 533 247 538Q298 566 294 615Q267 622 267 650L267 671Q267 684 276.50 694Q286 704 300 704Q314 704 323.50 694Q333 684 333 671L333 646Q333 569 306 542Q274 510 254 510Q239 510 239 525Z"  horiz-adv-x="410" vert-adv-y="1000"  />

      
      <glyph glyph-name="uni201E" unicode="&#x201E;" d="M54-90Q54-82 62-77Q113-49 109 0Q82 7 82 35L82 56Q82 70 91.50 79.50Q101 89 115 89Q129 89 138.50 79.50Q148 70 148 56L148 31Q148-46 121-73Q89-105 69-105Q54-105 54-90M234-90Q234-82 242-77Q293-49 289 0Q262 7 262 35L262 56Q262 70 272 79.50Q282 89 295 89Q308 89 318 79.50Q328 70 328 56L328 31Q328-46 301-73Q269-105 249-105Q234-105 234-90Z"  horiz-adv-x="410" vert-adv-y="1000"  />

      
      <glyph glyph-name="uni2026" unicode="&#x2026;" d="M94.50-0.50Q94.50-0.50 88.25 5.75Q82 12 82 30Q82 48 94.50 60.50Q107 73 125 73Q143 73 155.50 60.50Q168 48 168 30Q168 12 155.50-0.50Q143-13 125-13Q107-13 94.50-0.50M305.50-0.50Q305.50-0.50 299.25 5.75Q293 12 293 30Q293 48 305.50 60.50Q318 73 336 73Q354 73 366.50 60.50Q379 48 379 30Q379 12 366.50-0.50Q354-13 336-13Q318-13 305.50-0.50M516.50-0.50Q516.50-0.50 510.25 5.75Q504 12 504 30Q504 48 516.50 60.50Q529 73 547 73Q565 73 577.50 60.50Q590 48 590 30Q590 12 577.50-0.50Q565-13 547-13Q529-13 516.50-0.50Z"  horiz-adv-x="680" vert-adv-y="1000"  />

      
      <glyph glyph-name="uni2039" unicode="&#x2039;" d="M231 450Q232 440 227 434L86 254L227 76Q232 70 234 63.50Q236 57 233.50 51.50Q231 46 223 46Q208 46 202 55L65 233Q55 246 55 255Q55 264 65 277L202 456Q206 462 218 460Q230 458 231 450Z"  horiz-adv-x="311" vert-adv-y="1000"  />

      
      <glyph glyph-name="uni203A" unicode="&#x203A;" d="M76 450Q77 458 89 460Q101 462 105 456L242 277Q252 264 252 255Q252 246 242 233L105 55Q99 46 84 46Q76 46 73.50 51.50Q71 57 73 63.50Q75 70 80 76L221 254L80 434Q75 440 76 450Z"  horiz-adv-x="311" vert-adv-y="1000"  />

      
      <glyph glyph-name="uni2122" unicode="&#x2122;" d="M128 404L128 690L27 690Q22 690 22 695Q22 700 27 700L237 700Q243 700 243 695Q243 690 237 690L138 690L138 404Q138 399 133 399Q128 399 128 404M540 404L540 678L430 525Q426 523 425 523L423 523Q421 523 419 525L308 678L308 404Q308 399 303 399Q298 399 298 404L298 694Q298 700 303 700Q304 700 305 699Q306 699 308 698L425 537L540 698L541 698Q542 699 543 699Q544 700 545 700Q550 700 550 694L550 404Q550 399 545 399Q540 399 540 404Z"  horiz-adv-x="690" vert-adv-y="1000"  />

      

  </font>
</defs>
</svg>
