<svg width="27" height="22" viewBox="0 0 27 22" fill="none" xmlns="http://www.w3.org/2000/svg">
<path d="M0 1.75737C0 0.786801 0.786801 0 1.75737 0H24.7426C25.7132 0 26.5 0.786801 26.5 1.75737V1.75737C26.5 2.72794 25.7132 3.51474 24.7426 3.51474H1.75737C0.786801 3.51474 0 2.72794 0 1.75737V1.75737Z" fill="#5E81FE"/>
<path d="M0 10.6C0 9.61399 0.799289 8.8147 1.78526 8.8147H24.7147C25.7007 8.8147 26.5 9.61399 26.5 10.6V10.6C26.5 11.5859 25.7007 12.3852 24.7147 12.3852H1.78526C0.799288 12.3852 0 11.5859 0 10.6V10.6Z" fill="#5E81FE"/>
<path d="M0 19.4427C0 18.4721 0.786801 17.6853 1.75737 17.6853H24.7426C25.7132 17.6853 26.5 18.4721 26.5 19.4427V19.4427C26.5 20.4132 25.7132 21.2 24.7426 21.2H1.75737C0.786801 21.2 0 20.4132 0 19.4427V19.4427Z" fill="#5E81FE"/>
</svg>
