<svg width="117" height="25" viewBox="0 0 117 25" fill="none" xmlns="http://www.w3.org/2000/svg">
<path fill-rule="evenodd" clip-rule="evenodd" d="M82.2613 16.4009C80.5672 15.9764 80.5672 15.9587 80.5672 15.0567C80.5672 14.4491 80.6292 14.1591 82.0245 14.1591C82.9826 14.1591 84.3925 14.3182 85.2996 14.4721C85.4235 14.4898 85.551 14.4633 85.653 14.3837C85.755 14.3129 85.8206 14.198 85.8351 14.0742L86.0938 12.0534C86.112 11.8235 85.9663 11.6112 85.7295 11.5581C84.673 11.3229 83.2158 11.169 82.0135 11.169C77.8058 11.169 76.9497 12.7078 76.9497 15.0195C76.9497 17.5603 77.4324 18.4155 80.651 19.176C82.7713 19.6713 82.7713 20.0383 82.7713 20.6485C82.7713 21.4497 82.6984 21.7274 81.3141 21.7274C80.1957 21.7274 78.9024 21.5594 77.7657 21.264C77.6382 21.234 77.5107 21.2534 77.4014 21.3171C77.2921 21.3861 77.2138 21.494 77.1901 21.6178L76.8422 23.5466C76.8003 23.7676 76.9333 23.9843 77.1519 24.0533C78.3941 24.4424 80.1756 24.7077 81.4835 24.7077C85.5528 24.7077 86.3834 23.0451 86.3834 20.5689C86.3834 17.8274 85.8843 17.3145 82.2558 16.3823L82.2613 16.4V16.4009ZM71.7091 16.4009C70.0151 15.9764 70.0151 15.9587 70.0151 15.0567C70.0151 14.4491 70.077 14.1591 71.4723 14.1591C72.4286 14.1591 73.8403 14.3182 74.7474 14.4721C74.8713 14.4898 74.9988 14.4633 75.1008 14.3837C75.2028 14.3129 75.2684 14.198 75.283 14.0742L75.5416 12.0534C75.5708 11.8235 75.4178 11.6112 75.1864 11.5581C74.1481 11.3229 72.6909 11.169 71.4887 11.169C67.2919 11.169 66.4248 12.7078 66.4248 15.0195C66.4248 17.5603 66.9166 18.4155 70.1335 19.176C72.2537 19.6713 72.2537 20.0383 72.2537 20.6485C72.2537 21.4497 72.1809 21.7274 70.7965 21.7274C69.6763 21.7274 68.383 21.5594 67.2445 21.264C67.117 21.234 66.9895 21.2534 66.8802 21.3171C66.7709 21.3861 66.6926 21.494 66.6689 21.6178L66.3046 23.5368C66.2682 23.7579 66.3957 23.9755 66.6197 24.0445C67.8584 24.4336 69.6398 24.6989 70.9495 24.6989C75.0116 24.6989 75.8495 23.0363 75.8495 20.5601C75.8495 17.8185 75.3431 17.3056 71.7146 16.3735L71.7091 16.3912V16.4009ZM34.3585 7.1098C34.2984 6.92232 34.1217 6.79497 33.9177 6.79497H29.6033C29.403 6.79497 29.2208 6.92144 29.1607 7.10715L23.717 23.8561C23.6751 23.9887 23.6988 24.1391 23.7863 24.254C23.8737 24.369 24.0121 24.4371 24.1597 24.4371H27.1288C27.3346 24.4371 27.5149 24.3045 27.5732 24.1187L31.3229 11.7907C31.3229 11.7907 31.4231 11.4812 31.76 11.4812C32.1061 11.4812 32.1972 11.7996 32.1972 11.7996L33.9368 17.6452H31.6052C31.4048 17.6452 31.2227 17.7805 31.168 17.9724L30.4941 20.2895C30.4576 20.4221 30.4941 20.5724 30.5669 20.6786C30.658 20.7909 30.8037 20.8554 30.9495 20.8554H34.9295L35.9769 24.1214C36.0352 24.3071 36.2137 24.4345 36.4141 24.4345H39.3832C39.5289 24.4345 39.671 24.3637 39.7584 24.2487C39.8495 24.132 39.875 23.9834 39.8313 23.8472L34.3821 7.07974L34.3639 7.10804L34.3585 7.1098ZM91.0994 11.4379H88.3671C88.1121 11.4379 87.9062 11.6386 87.9062 11.8862V24.0197C87.9062 24.2673 88.1139 24.4725 88.3689 24.4725H91.1012C91.3562 24.4725 91.563 24.2717 91.563 24.0215V11.8907C91.563 11.643 91.3626 11.4458 91.1076 11.4458L91.0985 11.4388L91.0994 11.4379ZM52.3553 6.46776H49.623C49.3679 6.46776 49.1621 6.66851 49.1621 6.91613V24.0197C49.1621 24.2673 49.3698 24.4725 49.6248 24.4725H52.3571C52.6121 24.4725 52.8179 24.2717 52.8179 24.0215V6.92055C52.8179 6.67293 52.6176 6.47572 52.3626 6.47572L52.3553 6.46864V6.46776ZM113.778 11.177C112.334 11.177 110.362 11.6616 108.695 12.4222L108.495 11.7677C108.44 11.5732 108.258 11.4449 108.053 11.4449H106.031C105.776 11.4449 105.567 11.6457 105.567 11.8933V24.0268C105.567 24.2744 105.767 24.4778 106.022 24.4778H108.755C109.01 24.4778 109.219 24.2779 109.219 24.0268V15.6253C110.203 15.1389 111.587 14.6348 112.41 14.6348C113.025 14.6348 113.253 14.8595 113.253 15.4573V24.0179C113.253 24.2691 113.462 24.4689 113.717 24.4689H116.45C116.705 24.4689 116.911 24.2691 116.911 24.0179V15.1097C116.911 12.5053 115.854 11.1832 113.776 11.1832H113.774L113.778 11.177ZM10.5054 18.3907C10.4326 18.32 10.3287 18.2448 10.1502 18.2448C9.92254 18.2448 9.78956 18.3969 9.73856 18.4712C8.46348 20.3637 7.80773 22.1502 7.71665 23.9454C7.71392 24.0781 7.76492 24.2107 7.85782 24.308C7.9489 24.4141 8.08552 24.4672 8.22213 24.4672H11.2495C11.5136 24.4672 11.7322 24.2726 11.7505 24.025C11.8233 23.1583 12.0965 22.2916 12.6066 21.3896C12.7796 21.0712 12.643 20.7794 12.5428 20.6529C12.0419 20.0162 11.4289 19.3441 10.5182 18.419L10.5145 18.4013L10.5054 18.3907ZM61.2143 19.6819V21.2446C60.768 21.4922 59.9483 21.8282 58.9556 21.8282C58.1086 21.8282 57.8445 21.5806 57.8445 20.7493C57.8445 19.9534 58.0084 19.7022 59.0103 19.7022H61.2143V19.6828V19.6819ZM100.031 19.6819V21.2446C99.5759 21.4922 98.7562 21.8282 97.7726 21.8282C96.9256 21.8282 96.6614 21.5806 96.6614 20.7493C96.6614 19.9534 96.8254 19.7022 97.8272 19.7022H100.031V19.6828V19.6819ZM47.3069 21.8795C47.2887 21.7522 47.2158 21.6408 47.1065 21.57C46.9972 21.4993 46.8679 21.478 46.7404 21.5081C46.2486 21.6248 45.7932 21.6885 45.4289 21.6885C44.7549 21.6885 44.4452 21.4055 44.4452 20.7688V14.3395H47.0956C47.3506 14.3395 47.5582 14.1361 47.5582 13.8884V11.8809C47.5582 11.6333 47.3488 11.4299 47.0938 11.4299H44.4525V8.34437C44.4525 8.21172 44.3906 8.09056 44.2886 8.00389C44.1884 7.91811 44.0518 7.88008 43.9243 7.89777L41.192 8.2692C40.9625 8.29839 40.7912 8.48764 40.7912 8.71138V11.4352H39.3003C39.0453 11.4352 38.8376 11.636 38.8376 11.8836V13.8999C38.8376 14.1476 39.0562 14.3527 39.3112 14.3527H40.7976V21.1888C40.7976 23.5386 42.0672 24.7263 44.5737 24.7263C45.2841 24.7263 46.4972 24.5671 47.2877 24.3018C47.4972 24.2311 47.6265 24.025 47.5919 23.8066L47.2959 21.8875L47.305 21.8742L47.3069 21.8795ZM59.3828 11.1832C57.9984 11.1832 56.3153 11.3954 55.093 11.7226C54.8562 11.7845 54.7105 12.0012 54.7469 12.2267L55.0621 14.1546C55.0803 14.2723 55.1531 14.3784 55.2533 14.4491C55.3553 14.5199 55.4828 14.5376 55.6067 14.5199C56.7415 14.3076 57.9146 14.1838 58.9073 14.1838C60.8746 14.1838 61.1915 14.5906 61.1915 15.8818V17.0138H58.2771C55.4828 17.0138 54.2879 18.1281 54.2879 20.7635C54.2879 23.2751 55.5994 24.7077 57.8763 24.7077C59.2006 24.7077 60.523 24.354 61.6342 23.6996L61.7526 24.1117C61.8072 24.3062 61.9894 24.4389 62.1989 24.4389H64.4175C64.6725 24.4389 64.8783 24.2355 64.8783 23.9879V15.9225C64.8783 12.4558 63.3938 11.1646 59.3955 11.1646L59.3791 11.1734L59.3828 11.1832ZM98.1934 11.1832C96.809 11.1832 95.1332 11.3954 93.9127 11.7226C93.685 11.7845 93.5393 12.0012 93.5803 12.2267L93.8991 14.1546C93.9173 14.2723 93.9902 14.3784 94.0903 14.4491C94.1942 14.5199 94.3217 14.5376 94.4455 14.5199C95.5749 14.3076 96.7407 14.1838 97.7425 14.1838C99.7098 14.1838 100.019 14.5906 100.019 15.8818V17.0138H97.105C94.2998 17.0138 93.1049 18.1281 93.1049 20.7635C93.1049 23.2751 94.4137 24.7077 96.6933 24.7077C98.0167 24.7077 99.3345 24.354 100.446 23.6996L100.564 24.1117C100.619 24.3062 100.801 24.4389 101.01 24.4389H103.214C103.469 24.4389 103.679 24.2355 103.679 23.9879V15.9225C103.679 12.4558 102.194 11.1646 98.1961 11.1646L98.2006 11.1734L98.1934 11.1832ZM22.7881 6.54912C22.697 6.48279 22.5922 6.44919 22.4848 6.44919C22.4119 6.44919 22.3573 6.4598 22.3026 6.48102C21.2097 6.88252 20.1168 7.18851 19.1149 7.41314C18.9146 7.4662 18.736 7.6077 18.6778 7.78457C17.9491 9.73017 16.073 11.5873 14.1239 13.5152C14.0511 13.586 13.9418 13.6921 13.7596 13.6921C13.5775 13.6921 13.4682 13.6037 13.3953 13.5276C11.428 11.5909 9.57007 9.75139 8.84145 7.8058C8.76859 7.62893 8.60465 7.48743 8.40428 7.43437C7.40244 7.20443 6.2913 6.8949 5.21659 6.49694C5.16195 6.47925 5.09273 6.47041 5.03444 6.47041C4.92515 6.47041 4.8195 6.50578 4.73024 6.57034C4.5918 6.66762 4.52077 6.83565 4.53716 6.99484C4.7011 8.60968 5.36596 10.1874 6.54996 11.8411C7.6702 13.3976 9.11833 14.8391 10.53 16.2311C13.1166 18.7958 15.5666 21.2189 15.7833 24.0312C15.8015 24.2823 16.0201 24.4787 16.2788 24.4787H19.3208C19.4574 24.4787 19.5903 24.4256 19.6851 24.3283C19.7798 24.2311 19.8308 24.1019 19.8217 23.9693C19.7251 22.0918 18.9965 20.2107 17.5939 18.2183C17.3025 17.8026 16.9928 17.3958 16.6622 16.9979C16.5293 16.8387 16.5857 16.6353 16.6877 16.5362L16.9974 16.232C18.4063 14.8436 19.8572 13.402 20.9775 11.8456C22.1615 10.1962 22.8172 8.62649 22.9857 7.01252C23.0039 6.84892 22.9274 6.67647 22.7926 6.57653L22.8017 6.56327L22.7881 6.54912ZM13.7714 7.99947C14.725 7.99947 15.2788 7.94022 15.4719 7.94022C15.6904 7.94022 15.9272 8.11709 15.9272 8.3824C15.9272 8.45315 15.909 8.50621 15.8908 8.55927C15.7633 8.88472 15.1804 10.0662 14.1057 11.0797C13.9782 11.1929 13.8507 11.2141 13.7596 11.2141C13.6685 11.2141 13.5228 11.1929 13.4008 11.0797C12.3261 10.0662 11.7504 8.88649 11.6248 8.55574C11.6065 8.50267 11.5883 8.44961 11.5883 8.37002C11.5883 8.11356 11.8124 7.919 12.0474 7.919C12.2423 7.919 12.7942 7.97206 13.7487 7.97206H13.7523L13.7705 7.98975L13.7714 7.99947ZM91.0976 6.47218H88.3725C88.1175 6.47218 87.9099 6.66674 87.9099 6.91436V9.24908C87.9099 9.4967 88.1175 9.69833 88.3725 9.69833H91.1048C91.3599 9.69833 91.5666 9.50377 91.5666 9.25615V6.90286C91.5666 6.65524 91.3599 6.45626 91.1048 6.45626L91.0976 6.47749V6.47218ZM27.0778 0.902466C26.9566 0.743281 26.7681 0.654845 26.5677 0.654845C26.4648 0.654845 26.3628 0.67607 26.2763 0.725594C22.5422 2.70657 18.2187 3.75542 13.7669 3.75719C9.31687 3.75719 4.99254 2.70657 1.26203 0.723825C1.17096 0.670763 1.07077 0.653076 0.970588 0.653076C0.770219 0.653076 0.578957 0.741512 0.460557 0.900698C0.283868 1.11294 0.278403 1.50206 0.578957 1.732C2.44603 3.07623 4.50619 4.13746 6.69932 4.86264C8.97625 5.6055 11.3515 5.99462 13.7669 5.99462C16.1841 5.99462 18.5612 5.6055 20.8345 4.86264C23.0294 4.13746 25.0896 3.07623 26.9603 1.732C27.2608 1.50206 27.2517 1.11294 27.0787 0.88301V0.902466H27.0778Z" fill="#D6DAE5"/>
</svg>
