<svg width="117" height="23" viewBox="0 0 117 23" fill="none" xmlns="http://www.w3.org/2000/svg">
<path fill-rule="evenodd" clip-rule="evenodd" d="M115.316 20.0764C116.111 20.0764 116.745 20.7043 116.745 21.4914C116.745 22.2874 116.111 22.9064 115.309 22.9064C114.515 22.9064 113.87 22.2874 113.87 21.4914C113.87 20.7043 114.515 20.0764 115.309 20.0764H115.316ZM23.3761 22.7171H19.4416L19.274 21.7532C17.4762 22.7171 15.8732 22.8746 14.8167 22.8746C11.9296 22.8746 10.394 21.0068 10.394 18.4209C10.394 15.3716 12.1864 14.2821 15.3923 14.2821H18.6529V13.6241C18.6529 12.0677 18.4707 11.6113 15.9935 11.6113H11.9697L12.3649 7.79089H16.7785C22.1921 7.79089 23.3798 9.45349 23.3798 13.656V22.7171H23.3761ZM81.9932 16.7265C81.9932 19.8394 80.669 22.8586 75.126 22.8586C69.5776 22.8586 68.2279 19.8394 68.2279 16.7265V13.7197C68.2279 10.6067 69.5758 7.58749 75.1242 7.58749C80.6799 7.58749 82.0096 10.6067 82.0096 13.7214V16.7283L81.9932 16.7265ZM97.1084 16.7265C97.1084 19.8394 95.7823 22.8586 90.2412 22.8586C84.6909 22.8586 83.3412 19.8394 83.3412 16.7265V13.7197C83.3412 10.6067 84.6891 7.58749 90.2393 7.58749C95.7768 7.58749 97.1065 10.6067 97.1065 13.7214V16.7283L97.1084 16.7265ZM115.309 20.2993C114.672 20.2993 114.143 20.8299 114.143 21.4897C114.143 22.1618 114.672 22.6889 115.316 22.6889C115.963 22.7065 116.482 22.1759 116.482 21.5038C116.482 20.8494 115.963 20.3152 115.316 20.3152H115.309V20.2993ZM7.2446 22.6871H2.52682V11.6149H0.166107V7.79443H2.525V5.50393C2.525 2.39098 3.85472 0.537353 7.63988 0.537353H10.7911V4.3578H8.82388C7.34843 4.3578 7.25007 4.88841 7.25007 5.88597L7.23185 7.7962H10.8021L10.3831 11.6166H7.23367V22.6889L7.2446 22.6871ZM115.038 22.3157H114.779V20.7362C114.925 20.7185 115.052 20.7008 115.253 20.7008C115.502 20.7008 115.664 20.7486 115.763 20.8175C115.861 20.8883 115.908 20.9944 115.908 21.1448C115.908 21.3517 115.77 21.4773 115.599 21.5286V21.5409C115.737 21.5657 115.836 21.6895 115.872 21.923C115.908 22.1671 115.945 22.2626 115.97 22.3121H115.697C115.661 22.2626 115.619 22.1176 115.588 21.9124C115.551 21.709 115.442 21.6347 115.238 21.6347H115.056V22.3139L115.038 22.3157ZM115.038 21.4401H115.225C115.438 21.4401 115.619 21.3641 115.619 21.1695C115.619 21.0316 115.517 20.8936 115.225 20.8936C115.142 20.8936 115.08 20.8989 115.038 20.906V21.4401ZM15.1136 18.3626C15.1136 19.1974 15.5217 19.6307 16.4179 19.6307C17.3833 19.6307 17.9516 19.3265 18.6547 19.0117V17.3402H16.549C15.5508 17.3402 15.1136 17.5171 15.1136 18.3608V18.3626ZM60.1821 11.4009C59.2167 11.4009 58.5245 11.7015 57.8214 12.0199V19.0594C58.4954 19.1213 58.8816 19.1213 59.5227 19.1213C61.8361 19.1213 62.1494 18.0955 62.1494 16.6628V13.2952C62.1494 12.241 61.7851 11.3902 60.1821 11.3902V11.4009ZM75.1096 11.4009C73.5031 11.4009 72.9475 12.2498 72.9475 13.2934V17.1492C72.9475 18.2104 73.5031 19.0594 75.1096 19.0594C76.7126 19.0594 77.27 18.2104 77.27 17.1492V13.2934C77.27 12.2392 76.7053 11.3885 75.1024 11.3885L75.1096 11.4009ZM36.7535 11.8784C34.3054 11.4716 33.6023 11.3832 32.4255 11.3832C30.3089 11.3832 29.6696 11.8307 29.6696 13.5764V16.8662C29.6696 18.6084 30.3071 19.0594 32.4255 19.0594C33.6041 19.0594 34.3054 18.971 36.7535 18.5642V22.2856C34.6096 22.7543 33.2124 22.8763 32.0321 22.8763C26.9646 22.8763 24.95 20.294 24.95 16.562V13.8912C24.95 10.1521 26.9646 7.56449 32.0321 7.56449C33.2124 7.56449 34.6096 7.6883 36.7535 8.15702V11.8784ZM51.5262 16.5655H42.8702V16.8662C42.8702 18.6084 43.5078 19.0594 45.6244 19.0594C47.5279 19.0594 48.6846 18.971 51.1291 18.5642V22.2856C48.7738 22.7543 47.5461 22.8763 45.2328 22.8763C40.1689 22.8763 38.1652 20.294 38.1652 16.562V13.5021C38.1652 10.2353 39.6589 7.55919 44.8503 7.55919C50.0507 7.55919 51.5353 10.2034 51.5353 13.5021V16.562L51.5262 16.5655ZM90.2229 11.4009C88.62 11.4009 88.0644 12.2498 88.0644 13.2987V17.1598C88.0644 18.2211 88.62 19.07 90.2229 19.07C91.8259 19.07 92.3906 18.2211 92.3906 17.1598V13.2969C92.3906 12.241 91.8259 11.3902 90.2229 11.3902V11.4009ZM112.622 22.6853H107.509L103.181 15.6812V22.6853H98.4636V1.67818L103.181 0.917629V14.4395L107.508 7.78912H112.608L107.881 15.0409L112.604 22.6818L112.622 22.6853ZM44.8375 11.0117C43.2346 11.0117 42.8702 11.8607 42.8702 12.922V13.5109H46.8048V12.9167C46.8048 11.8731 46.4405 11.017 44.8375 11.017V11.0117ZM66.8708 16.6363C66.8708 20.2445 65.7961 22.8799 59.3479 22.8799C57.0236 22.8799 55.6574 22.6782 53.0891 22.2962V1.67464L57.8069 0.914092V8.12518C58.8269 7.75728 60.1475 7.57157 61.3497 7.57157C66.0675 7.57157 66.8508 9.62329 66.8508 12.9184V16.6504L66.8708 16.6363Z" fill="#D6DAE5"/>
</svg>
