<svg width="17" height="14" viewBox="0 0 17 14" fill="none" xmlns="http://www.w3.org/2000/svg">
<path d="M17.0001 2.10645H16.3472C16.1047 2.10645 15.7619 2.45066 15.7619 2.67103V10.6582C15.7619 10.8788 16.1047 11.1796 16.3472 11.1796H17.0001V13.0754H11.084V11.1796H12.3223V2.78355H12.2616L9.36999 13.0754H7.13129L4.277 2.78355H4.20477V11.1796H5.44303V13.0754H0.48999V11.1796H1.12422C1.38542 11.1796 1.72825 10.8788 1.72825 10.6582V2.67103C1.72825 2.45066 1.38542 2.10645 1.12422 2.10645H0.48999V0.210574H6.68355L8.717 7.65865H8.77295L10.8252 0.210574H17.0001V2.10645Z" fill="#757E9A"/>
</svg>
