<svg width="18" height="14" viewBox="0 0 18 14" fill="none" xmlns="http://www.w3.org/2000/svg">
<path fill-rule="evenodd" clip-rule="evenodd" d="M17.0328 1.8405C16.4252 2.1177 15.7726 2.30426 15.0877 2.38907C15.7868 1.95816 16.3239 1.27603 16.5767 0.463512C15.9222 0.862351 15.1973 1.15201 14.4257 1.3081C13.8081 0.632058 12.9275 0.210693 11.9534 0.210693C10.0831 0.210693 8.56628 1.76895 8.56628 3.69026C8.56628 3.96322 8.59595 4.22876 8.65399 4.48343C5.8385 4.33768 3.34237 2.95168 1.67201 0.84751C1.3805 1.36163 1.21347 1.95896 1.21347 2.59657C1.21347 3.80369 1.81144 4.86863 2.72002 5.49312C2.16538 5.47457 1.64273 5.31821 1.18612 5.05718V5.1009C1.18612 6.78769 2.35473 8.19356 3.90255 8.51356C3.61879 8.59306 3.31954 8.63546 3.01178 8.63546C2.79354 8.63546 2.58097 8.61426 2.37459 8.57319C2.8054 9.956 4.05656 10.962 5.5386 10.9901C4.37928 11.9229 2.91865 12.4794 1.3311 12.4794C1.05765 12.4794 0.788587 12.4635 0.523651 12.4309C2.02246 13.4183 3.80323 13.9945 5.71596 13.9945C11.946 13.9945 15.3531 8.69165 15.3531 4.09374C15.3531 3.94268 15.3498 3.79295 15.3433 3.64322C16.0053 3.15296 16.5798 2.53946 17.0338 1.84116" fill="#B6BAC7"/>
</svg>
