<svg width="67" height="68" viewBox="0 0 67 68" fill="none" xmlns="http://www.w3.org/2000/svg">
<path d="M2 33.625C2 16.159 16.2412 2 33.8085 2C37.0463 2 40.1712 2.48098 43.1147 3.375" stroke="white" stroke-width="4" stroke-linecap="round" stroke-linejoin="round"/>
<path fill-rule="evenodd" clip-rule="evenodd" d="M26.9628 40.4308C30.7434 44.1896 36.873 44.1896 40.6536 40.4308C44.4342 36.672 60.0846 10.25 58.7016 8.875C57.3186 7.5 30.7434 23.0602 26.9628 26.819C23.1822 30.5778 23.1822 36.672 26.9628 40.4308ZM33.808 36.375C35.3356 36.375 36.5739 35.1438 36.5739 33.625C36.5739 32.1062 35.3356 30.875 33.808 30.875C32.2804 30.875 31.042 32.1062 31.042 33.625C31.042 35.1438 32.2804 36.375 33.808 36.375Z" fill="white"/>
<ellipse cx="6.14894" cy="50.125" rx="2.76596" ry="2.75" fill="white"/>
<ellipse cx="17.2128" cy="61.125" rx="2.76596" ry="2.75" fill="white"/>
<ellipse cx="33.8085" cy="65.25" rx="2.76596" ry="2.75" fill="white"/>
<ellipse cx="50.4043" cy="61.125" rx="2.76596" ry="2.75" fill="white"/>
<ellipse cx="60.0851" cy="50.125" rx="2.76596" ry="2.75" fill="white"/>
<ellipse cx="64.234" cy="33.625" rx="2.76596" ry="2.75" fill="white"/>
</svg>
